<svg xmlns="http://www.w3.org/2000/svg" xmlns:xlink="http://www.w3.org/1999/xlink" version="1.1" data-diagram-type="DESCRIPTION" style="width:946px;height:364px;background:#FFFFFF;" width="946px" height="364px" viewBox="0 0 946 364" zoomAndPan="magnify" preserveAspectRatio="none" contentStyleType="text/css"><?plantuml 1.2026.8?><defs/><g font-family="sans-serif" lengthAdjust="spacing"><g class="title" data-source-line="157"><text x="258.563" y="23.535" fill="#000" font-size="14" textLength="422.721" font-weight="700">FAQ-Sprachwechsel (docs/wiki/faq.html) — Komponenten</text></g><!--entity Markup--><g class="entity" data-qualified-name="Markup" id="ent0001" data-source-line="159"><rect x="312.247" y="167.488" width="179.733" height="62.977" fill="#F1F1F1" style="stroke:#181818;stroke-width:0.5;" rx="2.5" ry="2.5"/><rect x="471.981" y="172.488" width="15" height="10" fill="#F1F1F1" style="stroke:#181818;stroke-width:0.5;"/><rect x="469.981" y="174.488" width="4" height="2" fill="#F1F1F1" style="stroke:#181818;stroke-width:0.5;"/><rect x="469.981" y="178.488" width="4" height="2" fill="#F1F1F1" style="stroke:#181818;stroke-width:0.5;"/><text x="327.247" y="201.023" fill="#000" font-size="14" textLength="83.672">FAQ Markup</text><text x="327.247" y="217.512" fill="#000" font-size="14" textLength="139.733">(docs/wiki/faq.html)</text></g><!--entity Toggle--><g class="entity" data-qualified-name="Toggle" id="ent0002" data-source-line="160"><rect x="142.747" y="285.488" width="190.575" height="62.977" fill="#F1F1F1" style="stroke:#181818;stroke-width:0.5;" rx="2.5" ry="2.5"/><rect x="313.323" y="290.488" width="15" height="10" fill="#F1F1F1" style="stroke:#181818;stroke-width:0.5;"/><rect x="311.323" y="292.488" width="4" height="2" fill="#F1F1F1" style="stroke:#181818;stroke-width:0.5;"/><rect x="311.323" y="296.488" width="4" height="2" fill="#F1F1F1" style="stroke:#181818;stroke-width:0.5;"/><text x="157.747" y="319.023" fill="#000" font-size="14" textLength="131.571">FAQ Sprachwechsel</text><text x="157.747" y="335.512" fill="#000" font-size="14" textLength="150.575">(faq.html inline script)</text></g><!--entity A11y--><g class="entity" data-qualified-name="A11y" id="ent0003" data-source-line="161"><rect x="742.747" y="285.488" width="199.1" height="62.977" fill="#F1F1F1" style="stroke:#181818;stroke-width:0.5;" rx="2.5" ry="2.5"/><rect x="921.847" y="290.488" width="15" height="10" fill="#F1F1F1" style="stroke:#181818;stroke-width:0.5;"/><rect x="919.847" y="292.488" width="4" height="2" fill="#F1F1F1" style="stroke:#181818;stroke-width:0.5;"/><rect x="919.847" y="296.488" width="4" height="2" fill="#F1F1F1" style="stroke:#181818;stroke-width:0.5;"/><text x="757.747" y="319.023" fill="#000" font-size="14" textLength="129.028">FAQ A11y-Adapter</text><text x="757.747" y="335.512" fill="#000" font-size="14" textLength="159.1">(r3-faq-accessibility.js)</text></g><!--entity Gate--><g class="entity" data-qualified-name="Gate" id="ent0004" data-source-line="162"><rect x="301.247" y="49.488" width="202.06" height="62.977" fill="#F1F1F1" style="stroke:#181818;stroke-width:0.5;" rx="2.5" ry="2.5"/><rect x="483.307" y="54.488" width="15" height="10" fill="#F1F1F1" style="stroke:#181818;stroke-width:0.5;"/><rect x="481.307" y="56.488" width="4" height="2" fill="#F1F1F1" style="stroke:#181818;stroke-width:0.5;"/><rect x="481.307" y="60.488" width="4" height="2" fill="#F1F1F1" style="stroke:#181818;stroke-width:0.5;"/><text x="316.247" y="83.023" fill="#000" font-size="14" textLength="89.373">R3 Wiki-Gate</text><text x="316.247" y="99.512" fill="#000" font-size="14" textLength="162.06">(r3_wiki_pilot_check.py)</text></g><g class="entity" data-qualified-name="GMN10" id="ent0011" data-source-line="171"><path d="M352.247,296.488 L352.247,312.988 L333.755,316.988 L352.247,320.988 L352.247,337.109 A0,0 0 0 0 352.247,337.109 L723.797,337.109 A0,0 0 0 0 723.797,337.109 L723.797,306.488 L713.797,296.488 L352.247,296.488 A0,0 0 0 0 352.247,296.488" style="stroke:#181818;stroke-width:0.5;" fill="#FEFFDD"/><path d="M713.797,296.488 L713.797,306.488 L723.797,306.488 L713.797,296.488" style="stroke:#181818;stroke-width:0.5;" fill="#FEFFDD"/><text x="358.247" y="314.057" fill="#000" font-size="13" textLength="171.304">L1 ist durch T-473 gebaut.</text><text x="358.247" y="329.367" fill="#000" font-size="13" textLength="350.549">data-lang bleibt ohne belegte Laufzeitwirkung statisch.</text></g><g class="link" data-entity-1="ent0001" data-entity-2="ent0002" id="lnk5" data-link-type="dependency"><polygon points="142.506,312.155,133.905,307.357,137.526,311.703,133.181,315.324,142.506,312.155" fill="#181818" style="stroke:#181818;stroke-width:1;stroke-linejoin:miter;stroke-miterlimit:10;"/><path d="M312.163,205.794 C209.708,213.335 54.2,228 36.247,248.488 C0,289.856 69.097,305.487 137.526,311.703" style="stroke:#181818;stroke-width:1;" fill="none"/><text x="38.247" y="263.057" fill="#000" font-size="13" textLength="192.543">langBtn onclick -> toggleLang</text></g><g class="link" data-entity-1="ent0002" data-entity-2="ent0001" id="lnk6" data-link-type="dependency"><polygon points="312.019,214.258,302.209,213.385,307.288,215.876,304.798,220.955,312.019,214.258" fill="#181818" style="stroke:#181818;stroke-width:1;stroke-linejoin:miter;stroke-miterlimit:10;"/><path d="M239.581,285.349 C241.621,272.555 246.027,258.397 255.247,248.488 C270.35,232.257 286.255,223.068 307.288,215.876" style="stroke:#181818;stroke-width:1;" fill="none"/><text x="257.247" y="263.057" fill="#000" font-size="13" textLength="269.147">querySelectorAll("[data-el]") -> innerHTML</text></g><g class="link" data-entity-1="ent0002" data-entity-2="ent0001" id="lnk7" data-link-type="dependency"><polygon points="492.265,219.628,499.463,226.35,496.991,221.263,502.078,218.79,492.265,219.628" fill="#181818" style="stroke:#181818;stroke-width:1;stroke-linejoin:miter;stroke-miterlimit:10;"/><path d="M333.919,287.404 C337.056,286.721 340.171,286.079 343.247,285.488 C383.81,277.694 500.49,298.077 528.247,267.488 C547.425,246.354 528.672,232.22 496.991,221.263" style="stroke:#181818;stroke-width:1;" fill="none"/><text x="537.247" y="263.057" fill="#000" font-size="13" textLength="249.622">documentElement.lang (gebaut, T-473)</text></g><g class="link" data-entity-1="ent0001" data-entity-2="ent0003" id="lnk8" data-link-type="dependency"><polygon points="826.849,285.159,825.507,275.402,824.215,280.91,818.708,279.617,826.849,285.159" fill="#181818" style="stroke:#181818;stroke-width:1;stroke-linejoin:miter;stroke-miterlimit:10;"/><path d="M492.6,203.061 C591.621,207.839 742.974,219.719 792.247,248.488 C806.856,257.018 815.858,267.427 824.215,280.91" style="stroke:#181818;stroke-width:1;" fill="none"/><text x="815.247" y="263.057" fill="#000" font-size="13" textLength="72.287">script defer</text></g><g class="link" data-entity-1="ent0004" data-entity-2="ent0001" id="lnk9" data-link-type="dependency"><polygon points="402.247,167.466,406.247,158.466,402.247,162.466,398.247,158.466,402.247,167.466" fill="#181818" style="stroke:#181818;stroke-width:1;stroke-linejoin:miter;stroke-miterlimit:10;"/><path d="M402.247,112.77 C402.247,129.684 402.247,145.592 402.247,162.466" style="stroke:#181818;stroke-width:1;stroke-dasharray:7,7;" fill="none"/><text x="404.247" y="145.057" fill="#000" font-size="13" textLength="200.161">check_r3_wiki_page (Build-Zeit)</text></g><?plantuml-src RP71Qjj048Rl-nHJdspeAXWN2ZaK74XRg7DeOoWqBMQr6ajJhtQLtH56FVKX-eHzaivATd52JaBC__tp_xElkcZgre0pG-WPKejil55Cx13Uhp_hUn7OveYsIUXWNWMRhevqeAkzUImQRjq2_lx-0vz2smMFdj4hPSy_C1CBk3Fnq7VV_Klm34mw2PvZJpOBVMQ0l2EFa6oaZYU7RQXhXyyTrilbeDULwHYZ6CIL5WzjhCMKg2H7F1G_q-IGjPVybnLybQJwWs4SsLqElkl81TxP1ksXw8O9pHAbfXAWzRjJ6hYMg_hwXZq4RntP0yYCnzb61keaoyG9leR77kDmZmujXxXsRZvxg0mRZUx7R95vyXxZn-tTvaLSBjotal_MOVuKEG3CQonDpwzXgz-yNIqka-RMWasdX0ht65Mk0qLnuJhMtVq_WQaHvZSzkKf_G-A5KZu84gbk6CB-_1W0coLG4ji-scPQ3bEKGePZhJ5VwP1A8Hjvr5AgrsAsCVt-bvWVIJA89h5XIhOf5FeAyhv_?></g></svg>