<svg xmlns="http://www.w3.org/2000/svg" xmlns:xlink="http://www.w3.org/1999/xlink" version="1.1" data-diagram-type="SEQUENCE" style="width:694px;height:731px;background:#FFFFFF;" width="694px" height="731px" viewBox="0 0 694 731" zoomAndPan="magnify" preserveAspectRatio="none" contentStyleType="text/css"><?plantuml 1.2026.8?><defs/><g font-family="sans-serif" lengthAdjust="spacing"><g class="title" data-source-line="43"><text x="85.32" y="28.535" fill="#000" font-size="14" textLength="522.122" font-weight="700">faq.html: langBtn onclick -> toggleLang -> querySelectorAll("[data-el]")</text></g><rect x="132.194" y="512.393" width="311.684" height="56.621" fill="none" style="stroke:#000;stroke-width:1.5;"/><g><title>Nutzer</title><rect x="32.411" y="123.977" width="8" height="519.658" fill="#000" fill-opacity="0"/><line x1="35.911" y1="123.977" x2="35.911" y2="643.635" style="stroke:#181818;stroke-width:0.5;stroke-dasharray:5,5;"/></g><g><title>FAQ Markup</title><rect x="144.694" y="123.977" width="8" height="519.658" fill="#000" fill-opacity="0"/><line x1="148.194" y1="123.977" x2="148.194" y2="643.635" style="stroke:#181818;stroke-width:0.5;stroke-dasharray:5,5;"/></g><g><title>FAQ Sprachwechsel</title><rect x="424.377" y="123.977" width="8" height="519.658" fill="#000" fill-opacity="0"/><line x1="427.877" y1="123.977" x2="427.877" y2="643.635" style="stroke:#181818;stroke-width:0.5;stroke-dasharray:5,5;"/></g><g><title>FAQ A11y-Adapter</title><rect x="593.713" y="123.977" width="8" height="519.658" fill="#000" fill-opacity="0"/><line x1="597.213" y1="123.977" x2="597.213" y2="643.635" style="stroke:#181818;stroke-width:0.5;stroke-dasharray:5,5;"/></g><text x="10" y="121.023" fill="#000" font-size="14" textLength="45.821">Nutzer</text><ellipse cx="35.911" cy="55.988" rx="8" ry="8" fill="#E2E2F0" style="stroke:#181818;stroke-width:0.5;"/><path d="M35.911,63.988 L35.911,90.988 M22.911,71.988 L48.911,71.988 M35.911,90.988 L22.911,105.988 M35.911,90.988 L48.911,105.988" style="stroke:#181818;stroke-width:0.5;" fill="none"/><rect x="99.358" y="76" width="97.672" height="46.977" fill="#E2E2F0" style="stroke:#181818;stroke-width:0.5;" rx="2.5" ry="2.5"/><text x="106.358" y="96.535" fill="#000" font-size="14" textLength="83.672">FAQ Markup</text><text x="115.06" y="113.023" fill="#000" font-size="14" textLength="66.268">(faq.html)</text><rect x="355.092" y="76" width="145.571" height="46.977" fill="#E2E2F0" style="stroke:#181818;stroke-width:0.5;" rx="2.5" ry="2.5"/><text x="362.092" y="96.535" fill="#000" font-size="14" textLength="131.571">FAQ Sprachwechsel</text><text x="385.447" y="113.023" fill="#000" font-size="14" textLength="84.861">(toggleLang)</text><rect x="510.663" y="76" width="173.1" height="46.977" fill="#E2E2F0" style="stroke:#181818;stroke-width:0.5;" rx="2.5" ry="2.5"/><text x="532.699" y="96.535" fill="#000" font-size="14" textLength="129.028">FAQ A11y-Adapter</text><text x="517.663" y="113.023" fill="#000" font-size="14" textLength="159.1">(r3-faq-accessibility.js)</text><text x="10" y="657.17" fill="#000" font-size="14" textLength="45.821">Nutzer</text><ellipse cx="35.911" cy="668.623" rx="8" ry="8" fill="#E2E2F0" style="stroke:#181818;stroke-width:0.5;"/><path d="M35.911,676.623 L35.911,703.623 M22.911,684.623 L48.911,684.623 M35.911,703.623 L22.911,718.623 M35.911,703.623 L48.911,718.623" style="stroke:#181818;stroke-width:0.5;" fill="none"/><rect x="99.358" y="643.635" width="97.672" height="46.977" fill="#E2E2F0" style="stroke:#181818;stroke-width:0.5;" rx="2.5" ry="2.5"/><text x="106.358" y="664.17" fill="#000" font-size="14" textLength="83.672">FAQ Markup</text><text x="115.06" y="680.658" fill="#000" font-size="14" textLength="66.268">(faq.html)</text><rect x="355.092" y="643.635" width="145.571" height="46.977" fill="#E2E2F0" style="stroke:#181818;stroke-width:0.5;" rx="2.5" ry="2.5"/><text x="362.092" y="664.17" fill="#000" font-size="14" textLength="131.571">FAQ Sprachwechsel</text><text x="385.447" y="680.658" fill="#000" font-size="14" textLength="84.861">(toggleLang)</text><rect x="510.663" y="643.635" width="173.1" height="46.977" fill="#E2E2F0" style="stroke:#181818;stroke-width:0.5;" rx="2.5" ry="2.5"/><text x="532.699" y="664.17" fill="#000" font-size="14" textLength="129.028">FAQ A11y-Adapter</text><text x="517.663" y="680.658" fill="#000" font-size="14" textLength="159.1">(r3-faq-accessibility.js)</text><rect x="10" y="152.632" width="673.763" height="3" fill="#EEE" style="stroke:#EEE;stroke-width:1;"/><line x1="10" y1="152.632" x2="683.763" y2="152.632" style="stroke:#000;stroke-width:1;"/><line x1="10" y1="155.632" x2="683.763" y2="155.632" style="stroke:#000;stroke-width:1;"/><rect x="317.753" y="141.977" width="58.256" height="23.311" fill="#EEE" style="stroke:#000;stroke-width:2;"/><text x="323.753" y="158.545" fill="#000" font-size="13" textLength="39.971" font-weight="700">Laden</text><line x1="148.194" y1="196.598" x2="190.194" y2="196.598" style="stroke:#181818;stroke-width:1;"/><line x1="190.194" y1="196.598" x2="190.194" y2="209.598" style="stroke:#181818;stroke-width:1;"/><line x1="149.194" y1="209.598" x2="190.194" y2="209.598" style="stroke:#181818;stroke-width:1;"/><polygon points="159.194,205.598,149.194,209.598,159.194,213.598,155.194,209.598" fill="#181818" style="stroke:#181818;stroke-width:1;stroke-linejoin:miter;stroke-miterlimit:10;"/><text x="155.194" y="191.855" fill="#000" font-size="13" textLength="208.958">&lt;html lang="el" data-lang="el"></text><polygon points="585.213,234.908,595.213,238.908,585.213,242.908,589.213,238.908" fill="#181818" style="stroke:#181818;stroke-width:1;stroke-linejoin:miter;stroke-miterlimit:10;"/><line x1="148.194" y1="238.908" x2="591.213" y2="238.908" style="stroke:#181818;stroke-width:1;"/><text x="155.194" y="234.166" fill="#000" font-size="13" textLength="72.287">script defer</text><polygon points="159.194,264.219,149.194,268.219,159.194,272.219,155.194,268.219" fill="#181818" style="stroke:#181818;stroke-width:1;stroke-linejoin:miter;stroke-miterlimit:10;"/><line x1="153.194" y1="268.219" x2="596.213" y2="268.219" style="stroke:#181818;stroke-width:1;"/><text x="165.194" y="263.477" fill="#000" font-size="13" textLength="319.706">.faq-q role/tabindex/aria-expanded/aria-controls</text><rect x="10" y="296.874" width="673.763" height="3" fill="#EEE" style="stroke:#EEE;stroke-width:1;"/><line x1="10" y1="296.874" x2="683.763" y2="296.874" style="stroke:#000;stroke-width:1;"/><line x1="10" y1="299.874" x2="683.763" y2="299.874" style="stroke:#000;stroke-width:1;"/><rect x="310.282" y="286.219" width="73.198" height="23.311" fill="#EEE" style="stroke:#000;stroke-width:2;"/><text x="316.282" y="302.787" fill="#000" font-size="13" textLength="54.914" font-weight="700">Klick EN</text><polygon points="136.194,336.84,146.194,340.84,136.194,344.84,140.194,340.84" fill="#181818" style="stroke:#181818;stroke-width:1;stroke-linejoin:miter;stroke-miterlimit:10;"/><line x1="35.911" y1="340.84" x2="142.194" y2="340.84" style="stroke:#181818;stroke-width:1;"/><text x="42.911" y="336.098" fill="#000" font-size="13" textLength="88.283">click #langBtn</text><polygon points="415.877,366.15,425.877,370.15,415.877,374.15,419.877,370.15" fill="#181818" style="stroke:#181818;stroke-width:1;stroke-linejoin:miter;stroke-miterlimit:10;"/><line x1="148.194" y1="370.15" x2="421.877" y2="370.15" style="stroke:#181818;stroke-width:1;"/><text x="155.194" y="365.408" fill="#000" font-size="13" textLength="78.8">toggleLang()</text><line x1="427.877" y1="399.461" x2="469.877" y2="399.461" style="stroke:#181818;stroke-width:1;"/><line x1="469.877" y1="399.461" x2="469.877" y2="412.461" style="stroke:#181818;stroke-width:1;"/><line x1="428.877" y1="412.461" x2="469.877" y2="412.461" style="stroke:#181818;stroke-width:1;"/><polygon points="438.877,408.461,428.877,412.461,438.877,416.461,434.877,412.461" fill="#181818" style="stroke:#181818;stroke-width:1;stroke-linejoin:miter;stroke-miterlimit:10;"/><text x="434.877" y="394.719" fill="#000" font-size="13" textLength="119.406">currentLang = "en"</text><polygon points="159.194,437.771,149.194,441.771,159.194,445.771,155.194,441.771" fill="#181818" style="stroke:#181818;stroke-width:1;stroke-linejoin:miter;stroke-miterlimit:10;"/><line x1="153.194" y1="441.771" x2="426.877" y2="441.771" style="stroke:#181818;stroke-width:1;"/><text x="165.194" y="437.029" fill="#000" font-size="13" textLength="255.684">document.documentElement.lang = "en"</text><polygon points="159.194,467.082,149.194,471.082,159.194,475.082,155.194,471.082" fill="#181818" style="stroke:#181818;stroke-width:1;stroke-linejoin:miter;stroke-miterlimit:10;"/><line x1="153.194" y1="471.082" x2="426.877" y2="471.082" style="stroke:#181818;stroke-width:1;"/><text x="165.194" y="466.34" fill="#000" font-size="13" textLength="12.333">1.</text><text x="181.641" y="466.34" fill="#000" font-size="13" textLength="170.435">langBtn.textContent = "ΕΛ"</text><polygon points="159.194,496.393,149.194,500.393,159.194,504.393,155.194,500.393" fill="#181818" style="stroke:#181818;stroke-width:1;stroke-linejoin:miter;stroke-miterlimit:10;"/><line x1="153.194" y1="500.393" x2="426.877" y2="500.393" style="stroke:#181818;stroke-width:1;"/><text x="165.194" y="495.65" fill="#000" font-size="13" textLength="174.707">querySelectorAll("[data-el]")</text><path d="M132.194,512.393 L206.641,512.393 L206.641,519.703 L196.641,529.703 L132.194,529.703 L132.194,512.393" style="stroke:#000;stroke-width:1.5;" fill="#EEE"/><rect x="132.194" y="512.393" width="311.684" height="56.621" fill="none" style="stroke:#000;stroke-width:1.5;"/><text x="147.194" y="525.961" fill="#000" font-size="13" textLength="29.447" font-weight="700">loop</text><text x="221.641" y="525.027" fill="#000" font-size="11" textLength="120.817" font-weight="700">[je [data-el] Element]</text><polygon points="159.194,557.014,149.194,561.014,159.194,565.014,155.194,561.014" fill="#181818" style="stroke:#181818;stroke-width:1;stroke-linejoin:miter;stroke-miterlimit:10;"/><line x1="153.194" y1="561.014" x2="426.877" y2="561.014" style="stroke:#181818;stroke-width:1;"/><text x="165.194" y="556.271" fill="#000" font-size="13" textLength="152.268">el.innerHTML = data-en</text><path d="M74.661,588.014 L74.661,628.014 L500.661,628.014 L500.661,598.014 L490.661,588.014 L74.661,588.014" style="stroke:#181818;stroke-width:0.5;" fill="#FEFFDD"/><path d="M490.661,588.014 L490.661,598.014 L500.661,598.014 L490.661,588.014" style="stroke:#181818;stroke-width:0.5;" fill="#FEFFDD"/><text x="80.661" y="605.582" fill="#000" font-size="13" textLength="12.333">1.</text><text x="97.108" y="605.582" fill="#000" font-size="13" textLength="214.183">365 ist durch T-473 geschlossen.</text><text x="80.661" y="620.893" fill="#000" font-size="13" textLength="405.749">data-lang bleibt statisch und hat keine belegte Laufzeitwirkung.</text><?plantuml-src VLDDRzim3BthLt3k9G5c5qNs0HHpWMpeC61fWQ6vRJl8CcEhKIH7ejUa_wEd_QV-fb6satfeqPj8lKS-Fafl6Y-hZGGZzwub21iaQQKWJGPX9RTPJHjppjUs-amMd5L6gpMa5q2kgWmk-296snRz_WODAd9-Rima-LbAaYcQtybK21dJSDtIFNhHI4zQwKPQWkJh_0TSIRzkcrzsScWuJK268VqSViEQLNs7gWvecFMafESjk_WvRtvsja_dfMm8FTFyBEL-gLGAGz25DfhssMteQqIi47aE2rcYXJmNlPeuwt0wXqzHQ-TDdg19e9lu65wCAB4S4uBokY4eSSKsTBbnkIpAsO9t1az95jgMk3kLNhEBEvwYnBAFbBF4eD3f-zxju_8wIkpz_QzclwwJONyZHRr9Z7XoRp8LGtPyhrhlqLAtw1mIjCa8TUnJEjLk69OT3fS6kzYypZieomXtz8K7Oqw4Fpuy_dsHyFf3CyurS8jmpC6WGm2yK0nDfgr5_srvjU2kFSaAjAMmZX3S7xQpvxqzF4U0azc7zw03xx7rgePb-kxZ32eCgZOk1BGPOuvF0Gg3kk2VHP8qGw2r9TIIO8tQ8XGyISMT5h9TtQEcEyrDR9L53H0r_0C0?></g></svg>