<svg xmlns="http://www.w3.org/2000/svg" xmlns:xlink="http://www.w3.org/1999/xlink" version="1.1" data-diagram-type="MINDMAP" style="width:1594px;height:529px;background:#FFFFFF;" width="1594px" height="529px" viewBox="0 0 1594 529" zoomAndPan="magnify" preserveAspectRatio="none" contentStyleType="text/css"><?plantuml 1.2026.8?><defs/><g font-family="sans-serif" lengthAdjust="spacing"><rect x="685.411" y="237.709" width="261.739" height="52.977" fill="#F1F1F1" style="stroke:#181818;stroke-width:1.5;" rx="12.5" ry="12.5"/><text x="695.411" y="261.244" fill="#000" font-size="14" textLength="206.397">Tab-Labels lesbar und tippbar</text><text x="695.411" y="277.732" fill="#000" font-size="14" textLength="241.739">bei Android fontScale 1.8 (GH#298)</text><rect x="997.15" y="88.244" width="155.502" height="36.488" fill="#F1F1F1" style="stroke:#181818;stroke-width:1.5;" rx="12.5" ry="12.5"/><text x="1007.15" y="111.779" fill="#000" font-size="14" textLength="135.502">App-Shell Safe Area</text><rect x="1202.652" y="80" width="370.444" height="52.977" fill="#F1F1F1" style="stroke:#181818;stroke-width:1.5;" rx="12.5" ry="12.5"/><text x="1212.652" y="103.535" fill="#000" font-size="14" textLength="144.669">gebaut: App.tsx::App</text><text x="1212.652" y="120.023" fill="#000" font-size="14" textLength="350.444">SafeAreaView edges top + innerer SafeAreaProvider</text><path d="M1152.652,106.488 L1162.652,106.488 C1177.652,106.488 1177.652,106.488 1192.652,106.488 L1202.652,106.488" style="stroke:#181818;stroke-width:1;" fill="none"/><path d="M947.15,264.197 L957.15,264.197 C972.15,264.197 972.15,106.488 987.15,106.488 L997.15,106.488" style="stroke:#181818;stroke-width:1;" fill="none"/><rect x="997.15" y="181.221" width="166.713" height="36.488" fill="#F1F1F1" style="stroke:#181818;stroke-width:1.5;" rx="12.5" ry="12.5"/><text x="1007.15" y="204.756" fill="#000" font-size="14" textLength="146.713">Tab-Navigation (App)</text><rect x="1213.863" y="152.977" width="316.912" height="36.488" fill="#F1F1F1" style="stroke:#181818;stroke-width:1.5;" rx="12.5" ry="12.5"/><text x="1223.863" y="176.512" fill="#000" font-size="14" textLength="296.912">gebaut: navigation/index.tsx::TabNavigator</text><path d="M1163.863,199.465 L1173.863,199.465 C1188.863,199.465 1188.863,171.221 1203.863,171.221 L1213.863,171.221" style="stroke:#181818;stroke-width:1;" fill="none"/><rect x="1213.863" y="209.465" width="348.166" height="36.488" fill="#F1F1F1" style="stroke:#181818;stroke-width:1.5;" rx="12.5" ry="12.5"/><text x="1223.863" y="233" fill="#000" font-size="14" textLength="328.166">gebaut: screenOptions.tabBarStyle (ohne height)</text><path d="M1163.863,199.465 L1173.863,199.465 C1188.863,199.465 1188.863,227.709 1203.863,227.709 L1213.863,227.709" style="stroke:#181818;stroke-width:1;" fill="none"/><path d="M947.15,264.197 L957.15,264.197 C972.15,264.197 972.15,199.465 987.15,199.465 L997.15,199.465" style="stroke:#181818;stroke-width:1;" fill="none"/><rect x="997.15" y="274.197" width="199.478" height="36.488" fill="#F1F1F1" style="stroke:#181818;stroke-width:1.5;" rx="12.5" ry="12.5"/><text x="1007.15" y="297.732" fill="#000" font-size="14" textLength="179.478">Tab-Label-Renderer (App)</text><rect x="1246.628" y="265.953" width="278.077" height="52.977" fill="#F1F1F1" style="stroke:#181818;stroke-width:1.5;" rx="12.5" ry="12.5"/><text x="1256.628" y="289.488" fill="#000" font-size="14" textLength="248.855">teilweise: screenOptions.tabBarLabel</text><text x="1256.628" y="305.977" fill="#000" font-size="14" textLength="258.077">Text fontSize 10, kein numberOfLines</text><path d="M1196.628,292.441 L1206.628,292.441 C1221.628,292.441 1221.628,292.441 1236.628,292.441 L1246.628,292.441" style="stroke:#181818;stroke-width:1;" fill="none"/><path d="M947.15,264.197 L957.15,264.197 C972.15,264.197 972.15,292.441 987.15,292.441 L997.15,292.441" style="stroke:#181818;stroke-width:1;" fill="none"/><rect x="997.15" y="347.174" width="192.115" height="36.488" fill="#F1F1F1" style="stroke:#181818;stroke-width:1.5;" rx="12.5" ry="12.5"/><text x="1007.15" y="370.709" fill="#000" font-size="14" textLength="172.115">Tab-Icon-Renderer (App)</text><rect x="1239.266" y="338.93" width="279.602" height="52.977" fill="#F1F1F1" style="stroke:#181818;stroke-width:1.5;" rx="12.5" ry="12.5"/><text x="1249.266" y="362.465" fill="#000" font-size="14" textLength="241.493">teilweise: screenOptions.tabBarIcon</text><text x="1249.266" y="378.953" fill="#000" font-size="14" textLength="259.602">Emoji fontSize 18, ignoriert size/color</text><path d="M1189.266,365.418 L1199.266,365.418 C1214.266,365.418 1214.266,365.418 1229.266,365.418 L1239.266,365.418" style="stroke:#181818;stroke-width:1;" fill="none"/><path d="M947.15,264.197 L957.15,264.197 C972.15,264.197 972.15,365.418 987.15,365.418 L997.15,365.418" style="stroke:#181818;stroke-width:1;" fill="none"/><rect x="997.15" y="411.906" width="66.211" height="36.488" fill="#F1F1F1" style="stroke:#181818;stroke-width:1.5;" rx="12.5" ry="12.5"/><text x="1007.15" y="435.441" fill="#000" font-size="14" textLength="46.211">Theme</text><rect x="1113.361" y="411.906" width="385.723" height="36.488" fill="#F1F1F1" style="stroke:#181818;stroke-width:1.5;" rx="12.5" ry="12.5"/><text x="1123.361" y="435.441" fill="#000" font-size="14" textLength="365.723">gebaut: theme.ts::colors.tabBarActive / tabBarInactive</text><path d="M1063.361,430.15 L1073.361,430.15 C1088.361,430.15 1088.361,430.15 1103.361,430.15 L1113.361,430.15" style="stroke:#181818;stroke-width:1;" fill="none"/><path d="M947.15,264.197 L957.15,264.197 C972.15,264.197 972.15,430.15 987.15,430.15 L997.15,430.15" style="stroke:#181818;stroke-width:1;" fill="none"/><rect x="457.392" y="76.488" width="178.02" height="36.488" fill="#F1F1F1" style="stroke:#181818;stroke-width:1.5;" rx="12.5" ry="12.5"/><text x="467.392" y="100.023" fill="#000" font-size="14" textLength="158.02">BottomTabBar (Vendor)</text><rect x="66.362" y="20" width="341.029" height="36.488" fill="#F1F1F1" style="stroke:#181818;stroke-width:1.5;" rx="12.5" ry="12.5"/><text x="76.362" y="43.535" fill="#000" font-size="14" textLength="321.029">gebaut: getTabBarHeight = 49 + insets.bottom</text><path d="M457.392,94.732 L447.392,94.732 C432.392,94.732 432.392,38.244 417.392,38.244 L407.392,38.244" style="stroke:#181818;stroke-width:1;" fill="none"/><rect x="165.449" y="76.488" width="241.942" height="36.488" fill="#F1F1F1" style="stroke:#181818;stroke-width:1.5;" rx="12.5" ry="12.5"/><text x="175.449" y="100.023" fill="#000" font-size="14" textLength="221.942">gebaut: styles.bottomItem flex 1</text><path d="M457.392,94.732 L447.392,94.732 C432.392,94.732 432.392,94.732 417.392,94.732 L407.392,94.732" style="stroke:#181818;stroke-width:1;" fill="none"/><rect x="32.661" y="132.977" width="374.73" height="36.488" fill="#F1F1F1" style="stroke:#181818;stroke-width:1.5;" rx="12.5" ry="12.5"/><text x="42.661" y="156.512" fill="#000" font-size="14" textLength="354.73">gebaut: shouldUseHorizontalLabels (width > height)</text><path d="M457.392,94.732 L447.392,94.732 C432.392,94.732 432.392,151.221 417.392,151.221 L407.392,151.221" style="stroke:#181818;stroke-width:1;" fill="none"/><path d="M685.411,264.197 L675.411,264.197 C660.411,264.197 660.411,94.732 645.411,94.732 L635.411,94.732" style="stroke:#181818;stroke-width:1;" fill="none"/><rect x="357.163" y="245.953" width="278.248" height="36.488" fill="#F1F1F1" style="stroke:#181818;stroke-width:1.5;" rx="12.5" ry="12.5"/><text x="367.163" y="269.488" fill="#000" font-size="14" textLength="258.248">BottomTabItem / TabBarIcon (Vendor)</text><rect x="10" y="189.465" width="297.163" height="36.488" fill="#F1F1F1" style="stroke:#181818;stroke-width:1.5;" rx="12.5" ry="12.5"/><text x="20" y="213" fill="#000" font-size="14" textLength="277.163">gebaut: styles.tabVerticalUiKit padding 5</text><path d="M357.163,264.197 L347.163,264.197 C332.163,264.197 332.163,207.709 317.163,207.709 L307.163,207.709" style="stroke:#181818;stroke-width:1;" fill="none"/><rect x="16.439" y="245.953" width="290.724" height="36.488" fill="#F1F1F1" style="stroke:#181818;stroke-width:1.5;" rx="12.5" ry="12.5"/><text x="26.439" y="269.488" fill="#000" font-size="14" textLength="270.724">gebaut: TabBarIcon wrapperUikit 31x28</text><path d="M357.163,264.197 L347.163,264.197 C332.163,264.197 332.163,264.197 317.163,264.197 L307.163,264.197" style="stroke:#181818;stroke-width:1;" fill="none"/><rect x="40.304" y="302.441" width="266.859" height="36.488" fill="#F1F1F1" style="stroke:#181818;stroke-width:1.5;" rx="12.5" ry="12.5"/><text x="50.304" y="325.977" fill="#000" font-size="14" textLength="246.859">gebaut: renderLabel Funktionszweig</text><path d="M357.163,264.197 L347.163,264.197 C332.163,264.197 332.163,320.686 317.163,320.686 L307.163,320.686" style="stroke:#181818;stroke-width:1;" fill="none"/><path d="M685.411,264.197 L675.411,264.197 C660.411,264.197 660.411,264.197 645.411,264.197 L635.411,264.197" style="stroke:#181818;stroke-width:1;" fill="none"/><rect x="482.493" y="358.93" width="152.918" height="36.488" fill="#F1F1F1" style="stroke:#181818;stroke-width:1.5;" rx="12.5" ry="12.5"/><text x="492.493" y="382.465" fill="#000" font-size="14" textLength="132.918">Native Font-Scaling</text><rect x="113.981" y="358.93" width="318.512" height="36.488" fill="#F1F1F1" style="stroke:#181818;stroke-width:1.5;" rx="12.5" ry="12.5"/><text x="123.981" y="382.465" fill="#000" font-size="14" textLength="298.512">gebaut: Text allowFontScaling (Default true)</text><path d="M482.493,377.174 L472.493,377.174 C457.493,377.174 457.493,377.174 442.493,377.174 L432.493,377.174" style="stroke:#181818;stroke-width:1;" fill="none"/><path d="M685.411,264.197 L675.411,264.197 C660.411,264.197 660.411,377.174 645.411,377.174 L635.411,377.174" style="stroke:#181818;stroke-width:1;" fill="none"/><rect x="492.617" y="415.418" width="142.794" height="36.488" fill="#F1F1F1" style="stroke:#181818;stroke-width:1.5;" rx="12.5" ry="12.5"/><text x="502.617" y="438.953" fill="#000" font-size="14" textLength="122.794">Tab-Layout-Tests</text><rect x="138.57" y="415.418" width="304.047" height="36.488" fill="#F1F1F1" style="stroke:#181818;stroke-width:1.5;" rx="12.5" ry="12.5"/><text x="148.57" y="438.953" fill="#000" font-size="14" textLength="284.047">offen: kein Test fuer navigation/index.tsx</text><path d="M492.617,433.662 L482.617,433.662 C467.617,433.662 467.617,433.662 452.617,433.662 L442.617,433.662" style="stroke:#181818;stroke-width:1;" fill="none"/><path d="M685.411,264.197 L675.411,264.197 C660.411,264.197 660.411,433.662 645.411,433.662 L635.411,433.662" style="stroke:#181818;stroke-width:1;" fill="none"/><rect x="544.064" y="471.906" width="91.347" height="36.488" fill="#F1F1F1" style="stroke:#181818;stroke-width:1.5;" rx="12.5" ry="12.5"/><text x="554.064" y="495.441" fill="#000" font-size="14" textLength="71.347">Landscape</text><rect x="177.364" y="471.906" width="316.7" height="36.488" fill="#F1F1F1" style="stroke:#181818;stroke-width:1.5;" rx="12.5" ry="12.5"/><text x="187.364" y="495.441" fill="#000" font-size="14" textLength="296.7">aufgeschoben: app.json orientation portrait</text><path d="M544.064,490.15 L534.064,490.15 C519.064,490.15 519.064,490.15 504.064,490.15 L494.064,490.15" style="stroke:#181818;stroke-width:1;" fill="none"/><path d="M685.411,264.197 L675.411,264.197 C660.411,264.197 660.411,490.15 645.411,490.15 L635.411,490.15" style="stroke:#181818;stroke-width:1;" fill="none"/><?plantuml-src dLHDRzim3BtdLt3O9Urgfya-a0ROq1HRrs95EonfJxdGCMshbIL3efEqltwKadGnqDDk1lNu7lb8-jmpEgwLoMjieAn6P-E4CKiqPgIJNRpthd5OrWWQdstBu6jYDDWxXhb0RmBKWoQVeOFMvC2gQUHxOJ9IC3Mviog7mXgUBL4J3DCnz7zUlHUjezxnCKoR9fbLf3NCi22OEX9gYPUKOSkJy9wotqmcyh4m0HCW3uhMG7b97jWsy06KCUJ8mHxmszcLoia5YL3dBQvKYQoiWRum7NKqpElZG7gcpLPGqdPPrdNWVkc8p5qJ4dmgXbsWc_6pDDUtbI6eI9KL7-sbeqN97nBcKE4_UIQbrwGylKqPynPcJXlU-gTUnBxJ4tWYPS2qTKRkhhXHXlnUwdffpNyeXRI5-L7RHtMWD3u1LHhh53cPkeG6Iwljrj6AQkfumY4Ylaqc4RHddYvPhGW6i1Co60CzJKNWp0C9N5XcMyyZ0leFKhvrtG6LnDldgsWjV8LFPt7edjYdMSplZYYCO_zopLH3eMa3moweigtExprTIPClqZVgtJhtrohd2huTZlAroaWtWFchTM_Nl2j16dyG0vKi_xtwfHWQp7DbIlZSGH-mhHqs3RbxzIJeZyFDQDn1kZZUM2XSjkOf3l95fbk6Acyn6duftIJXu4IfgnEs2RMswylTIOPQ-j-fm5Opi6lfO773mITpykmZYIqACfFj_eKe5AsisLlN4oXkqEH-YSrsKR0jv5gNbSq2XNIOFdffDgoN61yFix6E7IhkdKkB-xzFRvYEJaTVql5V?></g></svg>