<svg xmlns="http://www.w3.org/2000/svg" xmlns:xlink="http://www.w3.org/1999/xlink" version="1.1" data-diagram-type="SEQUENCE" style="width:1241px;height:652px;background:#FFFFFF;" width="1241px" height="652px" viewBox="0 0 1241 652" zoomAndPan="magnify" preserveAspectRatio="none" contentStyleType="text/css"><?plantuml 1.2026.8?><defs/><g font-family="sans-serif" lengthAdjust="spacing"><g class="title" data-source-line="337"><text x="403.066" y="28.535" fill="#000" font-size="14" textLength="433.18" font-weight="700">EKA-59/EKA-60: citizen question to technical-state answer</text></g><rect x="20.765" y="194.598" width="1194.855" height="280.061" fill="none" style="stroke:#000;stroke-width:1.5;"/><g><title>Citizen</title><rect x="33.265" y="123.977" width="8" height="440.613" fill="#000" fill-opacity="0"/><line x1="36.765" y1="123.977" x2="36.765" y2="564.59" style="stroke:#181818;stroke-width:0.5;stroke-dasharray:5,5;"/></g><g><title>POST .api.v1.agent.ask</title><rect x="402.667" y="123.977" width="8" height="440.613" fill="#000" fill-opacity="0"/><line x1="406.167" y1="123.977" x2="406.167" y2="564.59" style="stroke:#181818;stroke-width:0.5;stroke-dasharray:5,5;"/></g><g><title>_canonical_response</title><rect x="620.727" y="123.977" width="8" height="440.613" fill="#000" fill-opacity="0"/><line x1="624.227" y1="123.977" x2="624.227" y2="564.59" style="stroke:#181818;stroke-width:0.5;stroke-dasharray:5,5;"/></g><g><title>Web crypto.ts</title><rect x="760.856" y="123.977" width="8" height="440.613" fill="#000" fill-opacity="0"/><line x1="764.356" y1="123.977" x2="764.356" y2="564.59" style="stroke:#181818;stroke-width:0.5;stroke-dasharray:5,5;"/></g><g><title>Mobile crypto-native.ts</title><rect x="910.35" y="123.977" width="8" height="440.613" fill="#000" fill-opacity="0"/><line x1="913.85" y1="123.977" x2="913.85" y2="564.59" style="stroke:#181818;stroke-width:0.5;stroke-dasharray:5,5;"/></g><g><title>Payment state</title><rect x="1061.078" y="123.977" width="8" height="440.613" fill="#000" fill-opacity="0"/><line x1="1064.578" y1="123.977" x2="1064.578" y2="564.59" style="stroke:#181818;stroke-width:0.5;stroke-dasharray:5,5;"/></g><g><title>RAG . model</title><rect x="1176.232" y="123.977" width="8" height="440.613" fill="#000" fill-opacity="0"/><line x1="1179.732" y1="123.977" x2="1179.732" y2="564.59" style="stroke:#181818;stroke-width:0.5;stroke-dasharray:5,5;"/></g><text x="10" y="121.023" fill="#000" font-size="14" textLength="47.53">Citizen</text><ellipse cx="36.765" cy="55.988" rx="8" ry="8" fill="#E2E2F0" style="stroke:#181818;stroke-width:0.5;"/><path d="M36.765,63.988 L36.765,90.988 M23.765,71.988 L49.765,71.988 M36.765,90.988 L23.765,105.988 M36.765,90.988 L49.765,105.988" style="stroke:#181818;stroke-width:0.5;" fill="none"/><rect x="315.802" y="92.488" width="180.729" height="30.488" fill="#E2E2F0" style="stroke:#181818;stroke-width:0.5;" rx="2.5" ry="2.5"/><text x="322.802" y="113.023" fill="#000" font-size="14" textLength="166.729">POST /api/v1/agent/ask</text><rect x="547.439" y="92.488" width="153.576" height="30.488" fill="#E2E2F0" style="stroke:#181818;stroke-width:0.5;" rx="2.5" ry="2.5"/><text x="554.439" y="113.023" fill="#000" font-size="14" textLength="139.576">_canonical_response</text><rect x="711.015" y="92.488" width="106.682" height="30.488" fill="#E2E2F0" style="stroke:#181818;stroke-width:0.5;" rx="2.5" ry="2.5"/><text x="718.015" y="113.023" fill="#000" font-size="14" textLength="92.682">Web crypto.ts</text><rect x="827.697" y="92.488" width="172.307" height="30.488" fill="#E2E2F0" style="stroke:#181818;stroke-width:0.5;" rx="2.5" ry="2.5"/><text x="834.697" y="113.023" fill="#000" font-size="14" textLength="158.307">Mobile crypto-native.ts</text><rect x="1010.003" y="92.488" width="109.149" height="30.488" fill="#E2E2F0" style="stroke:#181818;stroke-width:0.5;" rx="2.5" ry="2.5"/><text x="1017.003" y="113.023" fill="#000" font-size="14" textLength="95.149">Payment state</text><rect x="1129.153" y="92.488" width="101.158" height="30.488" fill="#E2E2F0" style="stroke:#181818;stroke-width:0.5;" rx="2.5" ry="2.5"/><text x="1136.153" y="113.023" fill="#000" font-size="14" textLength="87.158">RAG / model</text><text x="10" y="578.125" fill="#000" font-size="14" textLength="47.53">Citizen</text><ellipse cx="36.765" cy="589.578" rx="8" ry="8" fill="#E2E2F0" style="stroke:#181818;stroke-width:0.5;"/><path d="M36.765,597.578 L36.765,624.578 M23.765,605.578 L49.765,605.578 M36.765,624.578 L23.765,639.578 M36.765,624.578 L49.765,639.578" style="stroke:#181818;stroke-width:0.5;" fill="none"/><rect x="315.802" y="564.59" width="180.729" height="30.488" fill="#E2E2F0" style="stroke:#181818;stroke-width:0.5;" rx="2.5" ry="2.5"/><text x="322.802" y="585.125" fill="#000" font-size="14" textLength="166.729">POST /api/v1/agent/ask</text><rect x="547.439" y="564.59" width="153.576" height="30.488" fill="#E2E2F0" style="stroke:#181818;stroke-width:0.5;" rx="2.5" ry="2.5"/><text x="554.439" y="585.125" fill="#000" font-size="14" textLength="139.576">_canonical_response</text><rect x="711.015" y="564.59" width="106.682" height="30.488" fill="#E2E2F0" style="stroke:#181818;stroke-width:0.5;" rx="2.5" ry="2.5"/><text x="718.015" y="585.125" fill="#000" font-size="14" textLength="92.682">Web crypto.ts</text><rect x="827.697" y="564.59" width="172.307" height="30.488" fill="#E2E2F0" style="stroke:#181818;stroke-width:0.5;" rx="2.5" ry="2.5"/><text x="834.697" y="585.125" fill="#000" font-size="14" textLength="158.307">Mobile crypto-native.ts</text><rect x="1010.003" y="564.59" width="109.149" height="30.488" fill="#E2E2F0" style="stroke:#181818;stroke-width:0.5;" rx="2.5" ry="2.5"/><text x="1017.003" y="585.125" fill="#000" font-size="14" textLength="95.149">Payment state</text><rect x="1129.153" y="564.59" width="101.158" height="30.488" fill="#E2E2F0" style="stroke:#181818;stroke-width:0.5;" rx="2.5" ry="2.5"/><text x="1136.153" y="585.125" fill="#000" font-size="14" textLength="87.158">RAG / model</text><polygon points="394.167,149.287,404.167,153.287,394.167,157.287,398.167,153.287" fill="#181818" style="stroke:#181818;stroke-width:1;stroke-linejoin:miter;stroke-miterlimit:10;"/><line x1="36.765" y1="153.287" x2="400.167" y2="153.287" style="stroke:#181818;stroke-width:1;"/><text x="43.765" y="148.545" fill="#000" font-size="13" textLength="345.401">private-key or payment/support question + el/en (H1)</text><polygon points="612.227,178.598,622.227,182.598,612.227,186.598,616.227,182.598" fill="#181818" style="stroke:#181818;stroke-width:1;stroke-linejoin:miter;stroke-miterlimit:10;"/><line x1="406.167" y1="182.598" x2="618.227" y2="182.598" style="stroke:#181818;stroke-width:1;"/><text x="413.167" y="177.855" fill="#000" font-size="13" textLength="194.061">question after safety filter (H2)</text><path d="M20.765,194.598 L82.904,194.598 L82.904,201.908 L72.904,211.908 L20.765,211.908 L20.765,194.598" style="stroke:#000;stroke-width:1.5;" fill="#EEE"/><rect x="20.765" y="194.598" width="1194.855" height="280.061" fill="none" style="stroke:#000;stroke-width:1.5;"/><text x="35.765" y="208.166" fill="#000" font-size="13" textLength="17.139" font-weight="700">alt</text><text x="97.904" y="207.232" fill="#000" font-size="11" textLength="148.656" font-weight="700">[current private-key path]</text><polygon points="47.765,239.219,37.765,243.219,47.765,247.219,43.765,243.219" fill="#181818" style="stroke:#181818;stroke-width:1;stroke-linejoin:miter;stroke-miterlimit:10;"/><line x1="41.765" y1="243.219" x2="623.227" y2="243.219" style="stroke:#181818;stroke-width:1;stroke-dasharray:2,2;"/><text x="53.765" y="238.477" fill="#000" font-size="13" textLength="203.354">generic device-only answer (H3)</text><path d="M699.609,256.219 L699.609,311.219 L977.609,311.219 L977.609,266.219 L967.609,256.219 L699.609,256.219" style="stroke:#181818;stroke-width:0.5;" fill="#FEFFDD"/><path d="M967.609,256.219 L967.609,266.219 L977.609,266.219 L967.609,256.219" style="stroke:#181818;stroke-width:0.5;" fill="#FEFFDD"/><text x="739.163" y="273.787" fill="#000" font-size="13" textLength="146.942">Actual sources diverge:</text><text x="739.163" y="289.098" fill="#000" font-size="13" textLength="190.88">Web Beta -> localStorage (H4)</text><text x="739.163" y="304.408" fill="#000" font-size="13" textLength="172.491">Mobile -> SecureStore (H5)</text><line x1="20.765" y1="318.15" x2="1215.62" y2="318.15" style="stroke:#000;stroke-width:1;stroke-dasharray:2,2;"/><text x="25.765" y="330.785" fill="#000" font-size="11" textLength="181.736" font-weight="700">[current payment/support path]</text><polygon points="417.167,353.416,407.167,357.416,417.167,361.416,413.167,357.416" fill="#181818" style="stroke:#181818;stroke-width:1;stroke-linejoin:miter;stroke-miterlimit:10;"/><line x1="411.167" y1="357.416" x2="623.227" y2="357.416" style="stroke:#181818;stroke-width:1;"/><text x="423.167" y="352.674" fill="#000" font-size="13" textLength="89.413">no match (H6)</text><polygon points="1167.732,382.727,1177.732,386.727,1167.732,390.727,1171.732,386.727" fill="#181818" style="stroke:#181818;stroke-width:1;stroke-linejoin:miter;stroke-miterlimit:10;"/><line x1="406.167" y1="386.727" x2="1173.732" y2="386.727" style="stroke:#181818;stroke-width:1;"/><text x="413.167" y="381.984" fill="#000" font-size="13" textLength="141.083">KB context + question</text><polygon points="47.765,412.037,37.765,416.037,47.765,420.037,43.765,416.037" fill="#181818" style="stroke:#181818;stroke-width:1;stroke-linejoin:miter;stroke-miterlimit:10;"/><line x1="41.765" y1="416.037" x2="1178.732" y2="416.037" style="stroke:#181818;stroke-width:1;stroke-dasharray:2,2;"/><text x="53.765" y="411.295" fill="#000" font-size="13" textLength="271.153">generated answer may mention processors</text><path d="M934.536,429.037 L934.536,469.037 L1194.536,469.037 L1194.536,439.037 L1184.536,429.037 L934.536,429.037" style="stroke:#181818;stroke-width:0.5;" fill="#FEFFDD"/><path d="M1184.536,429.037 L1184.536,439.037 L1194.536,439.037 L1184.536,429.037" style="stroke:#181818;stroke-width:0.5;" fill="#FEFFDD"/><text x="940.536" y="446.605" fill="#000" font-size="13" textLength="138.861">Actual technical state:</text><text x="940.536" y="461.916" fill="#000" font-size="13" textLength="239.084">public links paused; intake gated (H7)</text><path d="M563.546,493.658 L563.546,548.658 L1124.546,548.658 L1124.546,503.658 L1114.546,493.658 L563.546,493.658" style="stroke:#181818;stroke-width:0.5;" fill="#FEFFDD"/><path d="M1114.546,493.658 L1114.546,503.658 L1124.546,503.658 L1114.546,493.658" style="stroke:#181818;stroke-width:0.5;" fill="#FEFFDD"/><text x="665.948" y="511.227" fill="#000" font-size="13" textLength="140.734">Required narrow path:</text><text x="665.948" y="526.537" fill="#000" font-size="13" textLength="343.364">platform-specific key facts and paused-payment state</text><text x="665.948" y="541.848" fill="#000" font-size="13" textLength="347.909">return deterministically before database/model access.</text><?plantuml-src RPFTJXin48Nl_HHJha1bsT8MggPIfOH61V4J19LGhz34EnkiU6rZpuPkdxxZpGO8wbMKpFZCdEzCteM8YmR1OkTRXjGGeqF5XYt1z7nS77qjyyVnXn5em-OlENXiAR7n3jW3atvmHgCj4YCJe4jF59L2pJx2oVg52XZPQ1FGCUnSpsv_GOd1bAl34XVakCIqt05CCBu-s-wzr-XyhtyVAGNl4lMD9-EhsTLswntDGSSki3_Wr3VTJIVRBPT-RiJMkgjmo6P5c-RBsUJiOlfcK-mQMGzwQttNzVZtTilD-2UKqFYAx23pOtgXr60SYk_P4umWHBCIaM997GYOi5OkKnk2Z_o2z3sGBUNXxkdXdifFHQ4tAnhFJLWpHKXO4tTG6vk_xPv-t1Fiba6tCUQjNuyCo0yA1gKYQmuBZa02e6WqLBGocWhlR3UaA9gVzkILynAiNyaFGdH_00KmrjoYXUJRg2b19J3ZWaPIoL5Cv93oyjPBUBTo39Aq27xEWaCEKhqbsPPoEHUFSf5SrKzKP1Ezc7a3RDlGXhBpq23h1z4wpbe3m3uKAPzFG7l7z8U5yuPctgUl_mUBuAisC1hi8A-G0mZHY-NaOzh2aw_ZcSlpFsDzFfbBQETMI5lZbaaSj8cgRs0Suv9WqS_QFVsopS1LIhqCwEtkvp4tzDYQA2ySnkYVUXuZ5InoxMDJf43Qr38hXr_Bdp69ZMgOMOJNTwqYSHkTv2zdr1XdX8fiBLSmfphdKY7Z71EL_PK3wcpzG6rs_0S0?></g></svg>