<svg xmlns="http://www.w3.org/2000/svg" xmlns:xlink="http://www.w3.org/1999/xlink" version="1.1" data-diagram-type="SEQUENCE" style="width:1213px;height:432px;background:#FFFFFF;" width="1213px" height="432px" viewBox="0 0 1213 432" zoomAndPan="magnify" preserveAspectRatio="none" contentStyleType="text/css"><?plantuml 1.2026.8?><defs/><g font-family="sans-serif" lengthAdjust="spacing"><g class="title" data-source-line="1"><text x="470.955" y="28.535" fill="#000" font-size="14" textLength="270.047" font-weight="700">Expo 54 asset build dependency path</text></g><g><title>App manifest</title><rect x="58.785" y="78.977" width="8" height="311.105" fill="#000" fill-opacity="0"/><line x1="62.285" y1="78.977" x2="62.285" y2="390.082" style="stroke:#181818;stroke-width:0.5;stroke-dasharray:5,5;"/></g><g><title>Expo 54</title><rect x="219.691" y="78.977" width="8" height="311.105" fill="#000" fill-opacity="0"/><line x1="223.191" y1="78.977" x2="223.191" y2="390.082" style="stroke:#181818;stroke-width:0.5;stroke-dasharray:5,5;"/></g><g><title>.expo.metro 54.2.0</title><rect x="409.523" y="78.977" width="8" height="311.105" fill="#000" fill-opacity="0"/><line x1="413.023" y1="78.977" x2="413.023" y2="390.082" style="stroke:#181818;stroke-width:0.5;stroke-dasharray:5,5;"/></g><g><title>Metro family</title><rect x="662.94" y="78.977" width="8" height="311.105" fill="#000" fill-opacity="0"/><line x1="666.44" y1="78.977" x2="666.44" y2="390.082" style="stroke:#181818;stroke-width:0.5;stroke-dasharray:5,5;"/></g><g><title>Asset parser</title><rect x="968.96" y="78.977" width="8" height="311.105" fill="#000" fill-opacity="0"/><line x1="972.46" y1="78.977" x2="972.46" y2="390.082" style="stroke:#181818;stroke-width:0.5;stroke-dasharray:5,5;"/></g><g><title>Regression.build gates</title><rect x="1113.792" y="78.977" width="8" height="311.105" fill="#000" fill-opacity="0"/><line x1="1117.292" y1="78.977" x2="1117.292" y2="390.082" style="stroke:#181818;stroke-width:0.5;stroke-dasharray:5,5;"/></g><rect x="10" y="47.488" width="104.569" height="30.488" fill="#E2E2F0" style="stroke:#181818;stroke-width:0.5;" rx="2.5" ry="2.5"/><text x="17" y="68.023" fill="#000" font-size="14" textLength="90.569">App manifest</text><rect x="188.331" y="47.488" width="69.72" height="30.488" fill="#E2E2F0" style="stroke:#181818;stroke-width:0.5;" rx="2.5" ry="2.5"/><text x="195.331" y="68.023" fill="#000" font-size="14" textLength="55.72">Expo 54</text><rect x="334.878" y="47.488" width="156.29" height="30.488" fill="#E2E2F0" style="stroke:#181818;stroke-width:0.5;" rx="2.5" ry="2.5"/><text x="341.878" y="68.023" fill="#000" font-size="14" textLength="142.29">@expo/metro 54.2.0</text><rect x="616.835" y="47.488" width="99.21" height="30.488" fill="#E2E2F0" style="stroke:#181818;stroke-width:0.5;" rx="2.5" ry="2.5"/><text x="623.835" y="68.023" fill="#000" font-size="14" textLength="85.21">Metro family</text><rect x="923.293" y="47.488" width="98.335" height="30.488" fill="#E2E2F0" style="stroke:#181818;stroke-width:0.5;" rx="2.5" ry="2.5"/><text x="930.293" y="68.023" fill="#000" font-size="14" textLength="84.335">Asset parser</text><rect x="1031.628" y="47.488" width="171.329" height="30.488" fill="#E2E2F0" style="stroke:#181818;stroke-width:0.5;" rx="2.5" ry="2.5"/><text x="1038.628" y="68.023" fill="#000" font-size="14" textLength="157.329">Regression/build gates</text><rect x="10" y="390.082" width="104.569" height="30.488" fill="#E2E2F0" style="stroke:#181818;stroke-width:0.5;" rx="2.5" ry="2.5"/><text x="17" y="410.617" fill="#000" font-size="14" textLength="90.569">App manifest</text><rect x="188.331" y="390.082" width="69.72" height="30.488" fill="#E2E2F0" style="stroke:#181818;stroke-width:0.5;" rx="2.5" ry="2.5"/><text x="195.331" y="410.617" fill="#000" font-size="14" textLength="55.72">Expo 54</text><rect x="334.878" y="390.082" width="156.29" height="30.488" fill="#E2E2F0" style="stroke:#181818;stroke-width:0.5;" rx="2.5" ry="2.5"/><text x="341.878" y="410.617" fill="#000" font-size="14" textLength="142.29">@expo/metro 54.2.0</text><rect x="616.835" y="390.082" width="99.21" height="30.488" fill="#E2E2F0" style="stroke:#181818;stroke-width:0.5;" rx="2.5" ry="2.5"/><text x="623.835" y="410.617" fill="#000" font-size="14" textLength="85.21">Metro family</text><rect x="923.293" y="390.082" width="98.335" height="30.488" fill="#E2E2F0" style="stroke:#181818;stroke-width:0.5;" rx="2.5" ry="2.5"/><text x="930.293" y="410.617" fill="#000" font-size="14" textLength="84.335">Asset parser</text><rect x="1031.628" y="390.082" width="171.329" height="30.488" fill="#E2E2F0" style="stroke:#181818;stroke-width:0.5;" rx="2.5" ry="2.5"/><text x="1038.628" y="410.617" fill="#000" font-size="14" textLength="157.329">Regression/build gates</text><polygon points="211.191,104.287,221.191,108.287,211.191,112.287,215.191,108.287" fill="#181818" style="stroke:#181818;stroke-width:1;stroke-linejoin:miter;stroke-miterlimit:10;"/><line x1="62.285" y1="108.287" x2="217.191" y2="108.287" style="stroke:#181818;stroke-width:1;"/><text x="69.285" y="103.545" fill="#000" font-size="13" textLength="136.906">resolve ~54.0.37 (H1)</text><polygon points="401.023,133.598,411.023,137.598,401.023,141.598,405.023,137.598" fill="#181818" style="stroke:#181818;stroke-width:1;stroke-linejoin:miter;stroke-miterlimit:10;"/><line x1="223.191" y1="137.598" x2="407.023" y2="137.598" style="stroke:#181818;stroke-width:1;"/><text x="230.191" y="132.855" fill="#000" font-size="13" textLength="165.833">install adapter 54.2.0 (H1)</text><polygon points="654.44,162.908,664.44,166.908,654.44,170.908,658.44,166.908" fill="#181818" style="stroke:#181818;stroke-width:1;stroke-linejoin:miter;stroke-miterlimit:10;"/><line x1="413.023" y1="166.908" x2="660.44" y2="166.908" style="stroke:#181818;stroke-width:1;"/><text x="420.023" y="162.166" fill="#000" font-size="13" textLength="109.478">exact 0.83.3 (H2)</text><polygon points="960.46,207.529,970.46,211.529,960.46,215.529,964.46,211.529" fill="#181818" style="stroke:#181818;stroke-width:1;stroke-linejoin:miter;stroke-miterlimit:10;"/><line x1="666.44" y1="211.529" x2="966.46" y2="211.529" style="stroke:#181818;stroke-width:1;"/><text x="673.44" y="191.477" fill="#000" font-size="13" textLength="116.245">image-size ^1.0.2</text><text x="673.44" y="206.787" fill="#000" font-size="13" textLength="199.183">redirected to 1.2.2-pnyx.0 (H3)</text><polygon points="1105.292,236.84,1115.292,240.84,1105.292,244.84,1109.292,240.84" fill="#181818" style="stroke:#181818;stroke-width:1;stroke-linejoin:miter;stroke-miterlimit:10;"/><line x1="62.285" y1="240.84" x2="1111.292" y2="240.84" style="stroke:#181818;stroke-width:1;"/><text x="69.285" y="236.098" fill="#000" font-size="13" textLength="175.932">test malformed images (H4)</text><rect x="10" y="269.495" width="1192.957" height="3" fill="#EEE" style="stroke:#EEE;stroke-width:1;"/><line x1="10" y1="269.495" x2="1202.957" y2="269.495" style="stroke:#000;stroke-width:1;"/><line x1="10" y1="272.495" x2="1202.957" y2="272.495" style="stroke:#000;stroke-width:1;"/><rect x="490.683" y="258.84" width="231.591" height="23.311" fill="#EEE" style="stroke:#000;stroke-width:2;"/><text x="496.683" y="275.408" fill="#000" font-size="13" textLength="213.307" font-weight="700">proposed bounded replacement</text><polygon points="654.44,309.461,664.44,313.461,654.44,317.461,658.44,313.461" fill="#181818" style="stroke:#181818;stroke-width:1;stroke-linejoin:miter;stroke-miterlimit:10;"/><line x1="413.023" y1="313.461" x2="660.44" y2="313.461" style="stroke:#181818;stroke-width:1;"/><text x="420.023" y="308.719" fill="#000" font-size="13" textLength="229.417">coherent 0.83.8 family override (H5)</text><polygon points="960.46,338.771,970.46,342.771,960.46,346.771,964.46,342.771" fill="#181818" style="stroke:#181818;stroke-width:1;stroke-linejoin:miter;stroke-miterlimit:10;"/><line x1="666.44" y1="342.771" x2="966.46" y2="342.771" style="stroke:#181818;stroke-width:1;"/><text x="673.44" y="338.029" fill="#000" font-size="13" textLength="282.02">internal bounded parser, no image-size (H5)</text><polygon points="1105.292,368.082,1115.292,372.082,1105.292,376.082,1109.292,372.082" fill="#181818" style="stroke:#181818;stroke-width:1;stroke-linejoin:miter;stroke-miterlimit:10;"/><line x1="666.44" y1="372.082" x2="1111.292" y2="372.082" style="stroke:#181818;stroke-width:1;"/><text x="673.44" y="367.34" fill="#000" font-size="13" textLength="238.64">tests + Expo bundle/native build (H6)</text><?plantuml-src RPBDJ-Cm4CNl_YjcEH4jJR_u4b8HEKJB9TggSE20aAR9j5XoRCkUedOF_ErCd888sclURzwyvyal7t3R8XWyk1r3R8dHecBDXg3SUmSNvu0n4iDwfqq33Nco3Tdw01xvLIcFWNMjFLg6ay9xQD7g3KK-aJaebiiXSVHCOlcq_3jKxqZaiOG87PJFyaaFLaEiIi06MsqE2QZAnzKFgoA5ba-HGcAMnUgXN0sX5Mq3nQYT7VVrjiWK4_wdU2mVb982CBfDKU4617RcZU1Tmato-HMStaypbSGEgWJHDZ8Q0zYWPmh76aUmwh0KLaZQOyqmoQ_d-LpqMQPwHP0-Q-VMufP6KVyZU9dAojcp3TJeG3LJ0-nWAkwpaRU7VLeoppuJf_pY87rORc8sBhGoaWoZaEUPKei5-E2yYoAitKxksaX5Rx2cbkHz5eiVaMltIg5JKkhhumd0lL48kY6nlVXl2oilOT5yBUdFSWRMVMyudFvU8CBl_czSoxoXiKNMSeR-PgVtbza7?></g></svg>