<svg xmlns="http://www.w3.org/2000/svg" xmlns:xlink="http://www.w3.org/1999/xlink" version="1.1" data-diagram-type="DESCRIPTION" style="width:1139px;height:454px;background:#FFFFFF;" width="1139px" height="454px" viewBox="0 0 1139 454" zoomAndPan="magnify" preserveAspectRatio="none" contentStyleType="text/css"><?plantuml 1.2026.8?><defs/><g font-family="sans-serif" lengthAdjust="spacing"><!--entity WL--><g class="entity" data-qualified-name="WL" id="ent0001" data-source-line="28"><rect x="299" y="12" width="169.814" height="46.488" fill="#F1F1F1" style="stroke:#181818;stroke-width:0.5;" rx="2.5" ry="2.5"/><rect x="448.814" y="17" width="15" height="10" fill="#F1F1F1" style="stroke:#181818;stroke-width:0.5;"/><rect x="446.814" y="19" width="4" height="2" fill="#F1F1F1" style="stroke:#181818;stroke-width:0.5;"/><rect x="446.814" y="23" width="4" height="2" fill="#F1F1F1" style="stroke:#181818;stroke-width:0.5;"/><text x="314" y="45.535" fill="#000" font-size="14" textLength="129.814">web manifest+lock</text></g><!--entity DL--><g class="entity" data-qualified-name="DL" id="ent0002" data-source-line="29"><rect x="556" y="12" width="214.467" height="46.488" fill="#F1F1F1" style="stroke:#181818;stroke-width:0.5;" rx="2.5" ry="2.5"/><rect x="750.467" y="17" width="15" height="10" fill="#F1F1F1" style="stroke:#181818;stroke-width:0.5;"/><rect x="748.467" y="19" width="4" height="2" fill="#F1F1F1" style="stroke:#181818;stroke-width:0.5;"/><rect x="748.467" y="23" width="4" height="2" fill="#F1F1F1" style="stroke:#181818;stroke-width:0.5;"/><text x="571" y="45.535" fill="#000" font-size="14" textLength="174.467">dashboard manifest+lock</text></g><!--entity CI--><g class="entity" data-qualified-name="CI" id="ent0003" data-source-line="30"><rect x="449.5" y="113" width="129.065" height="46.488" fill="#F1F1F1" style="stroke:#181818;stroke-width:0.5;" rx="2.5" ry="2.5"/><rect x="558.565" y="118" width="15" height="10" fill="#F1F1F1" style="stroke:#181818;stroke-width:0.5;"/><rect x="556.565" y="120" width="4" height="2" fill="#F1F1F1" style="stroke:#181818;stroke-width:0.5;"/><rect x="556.565" y="124" width="4" height="2" fill="#F1F1F1" style="stroke:#181818;stroke-width:0.5;"/><text x="464.5" y="146.535" fill="#000" font-size="14" textLength="89.065">CI client gate</text></g><!--entity WD--><g class="entity" data-qualified-name="WD" id="ent0004" data-source-line="31"><rect x="174.5" y="113" width="177.484" height="46.488" fill="#F1F1F1" style="stroke:#181818;stroke-width:0.5;" rx="2.5" ry="2.5"/><rect x="331.984" y="118" width="15" height="10" fill="#F1F1F1" style="stroke:#181818;stroke-width:0.5;"/><rect x="329.984" y="120" width="4" height="2" fill="#F1F1F1" style="stroke:#181818;stroke-width:0.5;"/><rect x="329.984" y="124" width="4" height="2" fill="#F1F1F1" style="stroke:#181818;stroke-width:0.5;"/><text x="189.5" y="146.535" fill="#000" font-size="14" textLength="137.484">web Docker runtime</text></g><!--entity DD--><g class="entity" data-qualified-name="DD" id="ent0005" data-source-line="32"><rect x="674" y="113" width="222.137" height="46.488" fill="#F1F1F1" style="stroke:#181818;stroke-width:0.5;" rx="2.5" ry="2.5"/><rect x="876.137" y="118" width="15" height="10" fill="#F1F1F1" style="stroke:#181818;stroke-width:0.5;"/><rect x="874.137" y="120" width="4" height="2" fill="#F1F1F1" style="stroke:#181818;stroke-width:0.5;"/><rect x="874.137" y="124" width="4" height="2" fill="#F1F1F1" style="stroke:#181818;stroke-width:0.5;"/><text x="689" y="146.535" fill="#000" font-size="14" textLength="182.137">dashboard Docker runtime</text></g><!--entity WP--><g class="entity" data-qualified-name="WP" id="ent0006" data-source-line="33"><rect x="182.5" y="214" width="160.6" height="46.488" fill="#F1F1F1" style="stroke:#181818;stroke-width:0.5;" rx="2.5" ry="2.5"/><rect x="323.1" y="219" width="15" height="10" fill="#F1F1F1" style="stroke:#181818;stroke-width:0.5;"/><rect x="321.1" y="221" width="4" height="2" fill="#F1F1F1" style="stroke:#181818;stroke-width:0.5;"/><rect x="321.1" y="225" width="4" height="2" fill="#F1F1F1" style="stroke:#181818;stroke-width:0.5;"/><text x="197.5" y="247.535" fill="#000" font-size="14" textLength="120.6">web request edge</text></g><!--entity DP--><g class="entity" data-qualified-name="DP" id="ent0007" data-source-line="34"><rect x="682.5" y="214" width="205.252" height="46.488" fill="#F1F1F1" style="stroke:#181818;stroke-width:0.5;" rx="2.5" ry="2.5"/><rect x="867.752" y="219" width="15" height="10" fill="#F1F1F1" style="stroke:#181818;stroke-width:0.5;"/><rect x="865.752" y="221" width="4" height="2" fill="#F1F1F1" style="stroke:#181818;stroke-width:0.5;"/><rect x="865.752" y="225" width="4" height="2" fill="#F1F1F1" style="stroke:#181818;stroke-width:0.5;"/><text x="697.5" y="247.535" fill="#000" font-size="14" textLength="165.252">dashboard request edge</text></g><!--entity WPG--><g class="entity" data-qualified-name="WPG" id="ent0008" data-source-line="35"><rect x="6" y="330" width="112.037" height="46.488" fill="#F1F1F1" style="stroke:#181818;stroke-width:0.5;" rx="2.5" ry="2.5"/><rect x="98.037" y="335" width="15" height="10" fill="#F1F1F1" style="stroke:#181818;stroke-width:0.5;"/><rect x="96.037" y="337" width="4" height="2" fill="#F1F1F1" style="stroke:#181818;stroke-width:0.5;"/><rect x="96.037" y="341" width="4" height="2" fill="#F1F1F1" style="stroke:#181818;stroke-width:0.5;"/><text x="21" y="363.535" fill="#000" font-size="14" textLength="72.037">web pages</text></g><!--entity DRH--><g class="entity" data-qualified-name="DRH" id="ent0009" data-source-line="36"><rect x="575" y="330" width="275.792" height="46.488" fill="#F1F1F1" style="stroke:#181818;stroke-width:0.5;" rx="2.5" ry="2.5"/><rect x="830.792" y="335" width="15" height="10" fill="#F1F1F1" style="stroke:#181818;stroke-width:0.5;"/><rect x="828.792" y="337" width="4" height="2" fill="#F1F1F1" style="stroke:#181818;stroke-width:0.5;"/><rect x="828.792" y="341" width="4" height="2" fill="#F1F1F1" style="stroke:#181818;stroke-width:0.5;"/><text x="590" y="363.535" fill="#000" font-size="14" textLength="235.792">dashboard pages + route handlers</text></g><g class="entity" data-qualified-name="GMN18" id="ent0019" data-source-line="47"><path d="M179.5,332.5 L179.5,373.121 A0,0 0 0 0 179.5,373.121 L438.137,373.121 A0,0 0 0 0 438.137,373.121 L438.137,342.5 L428.137,332.5 L311.883,332.5 L284.027,260.409 L303.883,332.5 L179.5,332.5 A0,0 0 0 0 179.5,332.5" style="stroke:#181818;stroke-width:0.5;" fill="#FEFFDD"/><path d="M428.137,332.5 L428.137,342.5 L438.137,342.5 L428.137,332.5" style="stroke:#181818;stroke-width:0.5;" fill="#FEFFDD"/><text x="185.5" y="350.068" fill="#000" font-size="13" textLength="237.637">matcher bypasses /api, _next, _vercel</text><text x="185.5" y="365.379" fill="#000" font-size="13" textLength="107.891">and dotted paths</text></g><g class="entity" data-qualified-name="GMN21" id="ent0022" data-source-line="51"><path d="M869,332.5 L869,373.121 A0,0 0 0 0 869,373.121 L1123.149,373.121 A0,0 0 0 0 1123.149,373.121 L1123.149,342.5 L1113.149,332.5 L1000.657,332.5 L887.729,249.302 L992.657,332.5 L869,332.5 A0,0 0 0 0 869,332.5" style="stroke:#181818;stroke-width:0.5;" fill="#FEFFDD"/><path d="M1113.149,332.5 L1113.149,342.5 L1123.149,342.5 L1113.149,332.5" style="stroke:#181818;stroke-width:0.5;" fill="#FEFFDD"/><text x="875" y="350.068" fill="#000" font-size="13" textLength="233.149">/api/auth/* returns before protected</text><text x="875" y="365.379" fill="#000" font-size="13" textLength="170.568">user and canAccess checks</text></g><g class="entity" data-qualified-name="GMN24" id="ent0025" data-source-line="55"><path d="M562,413 L562,438.311 A0,0 0 0 0 562,438.311 L864.188,438.311 A0,0 0 0 0 864.188,438.311 L864.188,423 L854.188,413 L717,413 L713,376.307 L709,413 L562,413 A0,0 0 0 0 562,413" style="stroke:#181818;stroke-width:0.5;" fill="#FEFFDD"/><path d="M854.188,413 L854.188,423 L864.188,423 L854.188,413" style="stroke:#181818;stroke-width:0.5;" fill="#FEFFDD"/><text x="568" y="430.568" fill="#000" font-size="13" textLength="281.188">next/og ImageResponse: offen (0 importers)</text></g><g class="link" data-entity-1="ent0001" data-entity-2="ent0003" id="lnk10" data-link-type="dependency"><polygon points="465.827,112.875,459.873,105.029,461.448,110.463,456.014,112.037,465.827,112.875" fill="#181818" style="stroke:#181818;stroke-width:1;stroke-linejoin:miter;stroke-miterlimit:10;"/><path d="M401.153,58.209 C411.06,70.083 424.257,84.399 438,95 C446.5,101.557 451.851,105.178 461.448,110.463" style="stroke:#181818;stroke-width:1;" fill="none"/><text x="440" y="90.568" fill="#000" font-size="13" textLength="147.977">npm ci / npm run build</text></g><g class="link" data-entity-1="ent0002" data-entity-2="ent0003" id="lnk11" data-link-type="dependency"><polygon points="560.518,112.952,570.331,112.112,564.898,110.539,566.471,105.106,560.518,112.952" fill="#181818" style="stroke:#181818;stroke-width:1;stroke-linejoin:miter;stroke-miterlimit:10;"/><path d="M630.939,58.022 C623.245,63.657 615.181,69.864 608,76 C598.921,83.758 598.595,87.89 589,95 C580.226,101.501 574.637,105.173 564.898,110.539" style="stroke:#181818;stroke-width:1;" fill="none"/><text x="610" y="90.568" fill="#000" font-size="13" textLength="147.977">npm ci / npm run build</text></g><g class="link" data-entity-1="ent0001" data-entity-2="ent0004" id="lnk12" data-link-type="dependency"><polygon points="257.604,112.86,260.378,103.41,256.943,107.904,252.448,104.468,257.604,112.86" fill="#181818" style="stroke:#181818;stroke-width:1;stroke-linejoin:miter;stroke-miterlimit:10;"/><path d="M298.892,49.685 C285.256,55.619 272.769,64.049 264,76 C256.364,86.407 255.341,95.907 256.943,107.904" style="stroke:#181818;stroke-width:1;" fill="none"/><text x="266" y="90.568" fill="#000" font-size="13" textLength="147.977">npm ci / npm run build</text></g><g class="link" data-entity-1="ent0002" data-entity-2="ent0005" id="lnk13" data-link-type="dependency"><polygon points="781.261,112.72,782.942,103.016,780.04,107.872,775.184,104.97,781.261,112.72" fill="#181818" style="stroke:#181818;stroke-width:1;stroke-linejoin:miter;stroke-miterlimit:10;"/><path d="M738.603,58.055 C747.575,62.931 756.01,68.843 763,76 C772.701,85.932 776.97,95.682 780.04,107.872" style="stroke:#181818;stroke-width:1;" fill="none"/><text x="777" y="90.568" fill="#000" font-size="13" textLength="257.169">npm ci --ignore-scripts / npm run build</text></g><g class="link" data-entity-1="ent0004" data-entity-2="ent0006" id="lnk14" data-link-type="dependency"><polygon points="263,213.965,267,204.965,263,208.965,259,204.965,263,213.965" fill="#181818" style="stroke:#181818;stroke-width:1;stroke-linejoin:miter;stroke-miterlimit:10;"/><path d="M263,159.465 C263,175.781 263,192.75 263,208.965" style="stroke:#181818;stroke-width:1;" fill="none"/><text x="265" y="191.568" fill="#000" font-size="13" textLength="199.805">matcher-selected requests only</text></g><g class="link" data-entity-1="ent0005" data-entity-2="ent0007" id="lnk15" data-link-type="dependency"><polygon points="785,213.965,789,204.965,785,208.965,781,204.965,785,213.965" fill="#181818" style="stroke:#181818;stroke-width:1;stroke-linejoin:miter;stroke-miterlimit:10;"/><path d="M785,159.465 C785,175.781 785,192.75 785,208.965" style="stroke:#181818;stroke-width:1;" fill="none"/><text x="787" y="191.568" fill="#000" font-size="13" textLength="169.089">matcher-selected requests</text></g><g class="link" data-entity-1="ent0006" data-entity-2="ent0008" id="lnk16" data-link-type="dependency"><polygon points="53.933,329.773,55.476,320.045,52.643,324.942,47.747,322.109,53.933,329.773" fill="#181818" style="stroke:#181818;stroke-width:1;stroke-linejoin:miter;stroke-miterlimit:10;"/><path d="M182.47,243.462 C132.448,248.724 74.767,258.841 59,278 C47.316,292.197 48.332,308.793 52.643,324.942" style="stroke:#181818;stroke-width:1;" fill="none"/><text x="61" y="300.068" fill="#000" font-size="13" textLength="228.211">redirects / rewrites / intlMiddleware</text></g><g class="link" data-entity-1="ent0007" data-entity-2="ent0009" id="lnk17" data-link-type="dependency"><polygon points="727.018,329.805,735.206,324.332,729.688,325.578,728.442,320.06,727.018,329.805" fill="#181818" style="stroke:#181818;stroke-width:1;stroke-linejoin:miter;stroke-miterlimit:10;"/><path d="M770.947,260.251 C758.26,280.338 742.363,305.508 729.688,325.578" style="stroke:#181818;stroke-width:1;" fill="none"/><text x="761" y="292.568" fill="#000" font-size="13" textLength="211.009">protected pages + non-auth APIs</text><text x="810.791" y="307.879" fill="#000" font-size="13" textLength="111.427">auth + canAccess</text></g><?plantuml-src XP9DRzim343l-XLSJzio8pltCA2eW3P01mIzv39Wa6N65YfB7aaloxyVPQTPbnhjoOJz-FXXVXZ8jRs3w8vv5E0UnILdVEw7d309N1smXjwbi4UMLSp-wGeSm-xX9TCuxkhig5aWxN_axGPy32LidU04t6ukordDHG8QauH-XdPskTu2QksbZ_3Ng3q1Dkt9jbsslGBjzj8rk1Rv9BbRjam8h81qemYTIqr4cdFiuxqnkmUegcywDrn36dhm0TPJe5D0FORO6Fi-ShBixBiM-mAfgj2cJ5Ynfp08lzRQMRlLdDw9xv0gneXUyBmVXfpYqTWPjM-YHaspy4unmYQG0gKkuO62O0b3alWzDBgdWoCqTaxHPMdAG5bcvVDUKqwL6wM3c-s6VwGfN85twSPxP3P94w3E8hc7l2y_6vxxW_euEEPIr0tX2_nC-4VqyHl9OrHEVnOqcZgLauuDweiYlBJQOYsITQc__gpZo4Y9eSQzxlTVsugDh9MB-TmZQ3F-wGsxtWb0QMwTMzZqElaZifuQuxL-tsE2ZryXwF6Hw6rzEel-0W00?></g></svg>