<svg xmlns="http://www.w3.org/2000/svg" xmlns:xlink="http://www.w3.org/1999/xlink" version="1.1" data-diagram-type="DESCRIPTION" style="width:717px;height:488px;background:#FFFFFF;" width="717px" height="488px" viewBox="0 0 717 488" zoomAndPan="magnify" preserveAspectRatio="none" contentStyleType="text/css"><?plantuml 1.2026.8?><defs/><g font-family="sans-serif" lengthAdjust="spacing"><!--entity SQL--><g class="entity" data-qualified-name="SQL" id="ent0001" data-source-line="121"><rect x="6" y="211" width="132.499" height="52.977" fill="#F1F1F1" style="stroke:#181818;stroke-width:0.5;" rx="2.5" ry="2.5"/><text x="16" y="234.535" fill="#000" font-size="14" textLength="112.499">Legacy SQL seed</text><text x="16" y="251.023" fill="#000" font-size="14" textLength="54.387">17 rows</text></g><!--entity PY--><g class="entity" data-qualified-name="PY" id="ent0002" data-source-line="122"><rect x="156" y="211" width="227.546" height="52.977" fill="#F1F1F1" style="stroke:#181818;stroke-width:0.5;" rx="2.5" ry="2.5"/><text x="166" y="234.535" fill="#000" font-size="14" textLength="207.546">Python catalog + synchronizer</text><text x="166" y="251.023" fill="#000" font-size="14" textLength="76.932">14 ENTRIES</text></g><!--entity DB--><g class="entity" data-qualified-name="DB" id="ent0003" data-source-line="123"><path d="M91,329 C91,319 156.962,319 156.962,319 C156.962,319 222.925,319 222.925,329 L222.925,354.488 C222.925,364.488 156.962,364.488 156.962,364.488 C156.962,364.488 91,364.488 91,354.488 L91,329" style="stroke:#181818;stroke-width:0.5;" fill="#F1F1F1"/><path d="M91,329 C91,339 156.962,339 156.962,339 C156.962,339 222.925,339 222.925,329" style="stroke:#181818;stroke-width:0.5;" fill="none"/><text x="101" y="356.535" fill="#000" font-size="14" textLength="111.925">knowledge_base</text></g><!--entity DEPLOY--><g class="entity" data-qualified-name="DEPLOY" id="ent0004" data-source-line="124"><rect x="90.5" y="120" width="185.067" height="36.488" fill="#F1F1F1" style="stroke:#181818;stroke-width:0.5;" rx="2.5" ry="2.5"/><text x="100.5" y="143.535" fill="#000" font-size="14" textLength="165.067">Manual deploy workflow</text></g><!--entity CI--><g class="entity" data-qualified-name="CI" id="ent0005" data-source-line="125"><rect x="307.5" y="120" width="96.556" height="36.488" fill="#F1F1F1" style="stroke:#181818;stroke-width:0.5;" rx="2.5" ry="2.5"/><text x="317.5" y="143.535" fill="#000" font-size="14" textLength="76.556">CI API tests</text></g><!--entity PRIVATE--><g class="entity" data-qualified-name="PRIVATE" id="ent0006" data-source-line="126"><rect x="158" y="12" width="138.029" height="52.977" fill="#F1F1F1" style="stroke:#181818;stroke-width:0.5;" rx="2.5" ry="2.5"/><text x="168" y="35.535" fill="#000" font-size="14" textLength="102.361">Private ignored</text><text x="168" y="52.023" fill="#000" font-size="14" textLength="118.029">historical capture</text></g><!--entity FIXTURE--><g class="entity" data-qualified-name="FIXTURE" id="ent0007" data-source-line="127"><rect x="397" y="12" width="174.465" height="52.977" fill="#F1F1F1" style="stroke:#181818;stroke-width:0.5;" rx="2.5" ry="2.5"/><text x="407" y="35.535" fill="#000" font-size="14" textLength="154.465">Tracked question-only</text><text x="407" y="52.023" fill="#000" font-size="14" textLength="45.233">fixture</text></g><!--entity RAG--><g class="entity" data-qualified-name="RAG" id="ent0008" data-source-line="128"><rect x="90.5" y="419" width="133.449" height="52.977" fill="#F1F1F1" style="stroke:#181818;stroke-width:0.5;" rx="2.5" ry="2.5"/><text x="100.5" y="442.535" fill="#000" font-size="14" textLength="99.907">Agent retrieval</text><text x="100.5" y="459.023" fill="#000" font-size="14" textLength="113.449">first 20 -> top 5</text></g><g class="link" data-entity-1="ent0001" data-entity-2="ent0003" id="lnk9" data-link-type="dependency"><polygon points="119.573,318.952,114.705,310.39,115.549,315.983,109.956,316.828,119.573,318.952" fill="#181818" style="stroke:#181818;stroke-width:1;stroke-linejoin:miter;stroke-miterlimit:10;"/><path d="M79.94,264.303 C84.501,276.323 91.113,290.298 100,301 C105.538,307.669 108.446,310.743 115.549,315.983" style="stroke:#181818;stroke-width:1;" fill="none"/><text x="102" y="296.568" fill="#000" font-size="13" textLength="117.971">H1 manual replace</text></g><g class="link" data-entity-1="ent0002" data-entity-2="ent0003" id="lnk10" data-link-type="dependency"><polygon points="196.79,318.972,206.529,317.505,201.006,316.283,202.227,310.76,196.79,318.972" fill="#181818" style="stroke:#181818;stroke-width:1;stroke-linejoin:miter;stroke-miterlimit:10;"/><path d="M252.987,264.26 C244.296,276.27 233.027,290.249 221,301 C213.699,307.526 209.398,310.93 201.006,316.283" style="stroke:#181818;stroke-width:1;" fill="none"/><text x="242" y="296.568" fill="#000" font-size="13" textLength="112.69">H2 manual upsert</text></g><g class="link" data-entity-1="ent0004" data-entity-2="ent0002" id="lnk11" data-link-type="dependency"><polygon points="197.073,210.99,192.238,202.409,193.061,208.006,187.464,208.829,197.073,210.99" fill="#181818" style="stroke:#181818;stroke-width:1;stroke-linejoin:miter;stroke-miterlimit:10;"/><path d="M177.167,156.342 C174.485,167.619 173.214,182.183 180,193 C184.427,200.056 186.345,203.012 193.061,208.006" style="stroke:#181818;stroke-width:1;stroke-dasharray:7,7;" fill="none"/><text x="182" y="188.568" fill="#000" font-size="13" textLength="146.269">H4 missing sync/check</text></g><g class="link" data-entity-1="ent0005" data-entity-2="ent0002" id="lnk12" data-link-type="dependency"><polygon points="315.201,210.825,324.781,208.538,319.173,207.789,319.922,202.182,315.201,210.825" fill="#181818" style="stroke:#181818;stroke-width:1;stroke-linejoin:miter;stroke-miterlimit:10;"/><path d="M351.739,156.417 C348.328,167.726 342.661,182.298 334,193 C328.676,199.579 326.068,202.518 319.173,207.789" style="stroke:#181818;stroke-width:1;stroke-dasharray:7,7;" fill="none"/><text x="347" y="188.568" fill="#000" font-size="13" textLength="161.015">H5 missing drift invariant</text></g><g class="link" data-entity-1="ent0006" data-entity-2="ent0005" id="lnk13" data-link-type="dependency"><polygon points="307.14,125.513,299.33,119.512,302.279,124.34,297.452,127.289,307.14,125.513" fill="#181818" style="stroke:#181818;stroke-width:1;stroke-linejoin:miter;stroke-miterlimit:10;"/><path d="M218.569,65.238 C216.211,77.529 216.117,91.754 224,102 C226.684,105.488 265.81,115.533 302.279,124.34" style="stroke:#181818;stroke-width:1;" fill="none"/><text x="226" y="97.568" fill="#000" font-size="13" textLength="230.509">H6 absent in clean checkout -> skip</text></g><g class="link" data-entity-1="ent0007" data-entity-2="ent0005" id="lnk14" data-link-type="dependency"><polygon points="404.714,130.53,414.407,132.275,409.571,129.341,412.504,124.504,404.714,130.53" fill="#181818" style="stroke:#181818;stroke-width:1;stroke-linejoin:miter;stroke-miterlimit:10;"/><path d="M480.389,65.18 C477.396,77.759 471.938,92.254 462,102 C446.641,117.062 429.529,124.453 409.571,129.341" style="stroke:#181818;stroke-width:1;stroke-dasharray:7,7;" fill="none"/><text x="475" y="97.568" fill="#000" font-size="13" textLength="234.882">intended mandatory regression input</text></g><g class="link" data-entity-1="ent0003" data-entity-2="ent0008" id="lnk15" data-link-type="dependency"><polygon points="157,418.934,161,409.934,157,413.934,153,409.934,157,418.934" fill="#181818" style="stroke:#181818;stroke-width:1;stroke-linejoin:miter;stroke-miterlimit:10;"/><path d="M157,364.132 C157,380.155 157,397.045 157,413.934" style="stroke:#181818;stroke-width:1;" fill="none"/><text x="159" y="396.568" fill="#000" font-size="13" textLength="101.575">H7 capped rows</text></g><?plantuml-src LLB1Rjim3BthAxXSXxHhqQx03WMIDjiCP9kNfCC251XOcN44ov97oKczhnzbTvbxaI3nFJu-acyQnh96iDZvDaAeAQ935IhZ6cIiGVkwyOvSNCVE4Z1f0PIMr2a0aoMLg3jOVrz282eUtSKDi3-62M18lsDitiMzTw0nelKbl8NGERrdxymVOc5UmUBhPfKjrZqvtwf2a4yO22QLyqTBHKc_qhkFty_7kR-WQz52GOtr7HmzLplhZmDmaI-_RSVWkmncUGQHGXmAlSjUrSdcW970bCvpyhGt8NesMWGqDh7beO9ybVsORHPZwePHLrJ0xrPo6--ctjdkqUtCyudrCVkvULYzOitAT355DdH0c_0S8bo-W-ajHD_0TSzSpJufbJezbU_xENo0pnTG3yPPZACcbMz7qSj_qRO9n54DdO2pirlfRW9SGMr2CAxiHt6kzwGh9TtvZxW-8GeskmZ67P0DkgXUtFToGX7iUy2da9mO6R8bb3CbJCib6DchHhsOxmLwad6HN24Taqfbt9uxiL8oYQQiYcnYAsNFUn6ndrHkqWmQOQGr-mi0?></g></svg>