<svg xmlns="http://www.w3.org/2000/svg" xmlns:xlink="http://www.w3.org/1999/xlink" version="1.1" data-diagram-type="DESCRIPTION" style="width:749px;height:604px;background:#FFFFFF;" width="749px" height="604px" viewBox="0 0 749 604" zoomAndPan="magnify" preserveAspectRatio="none" contentStyleType="text/css"><?plantuml 1.2026.8?><defs/><g font-family="sans-serif" lengthAdjust="spacing"><!--entity TESTCMD--><g class="entity" data-qualified-name="TESTCMD" id="ent0001" data-source-line="75"><rect x="6" y="12" width="149.999" height="52.977" fill="#F1F1F1" style="stroke:#181818;stroke-width:0.5;" rx="2.5" ry="2.5"/><text x="16" y="35.535" fill="#000" font-size="14" textLength="129.999">Web test command</text><text x="16" y="52.023" fill="#000" font-size="14" textLength="123.539">package.json::test</text></g><!--entity VITEST--><g class="entity" data-qualified-name="VITEST" id="ent0002" data-source-line="76"><rect x="51.5" y="120" width="58.609" height="36.488" fill="#F1F1F1" style="stroke:#181818;stroke-width:0.5;" rx="2.5" ry="2.5"/><text x="61.5" y="143.535" fill="#000" font-size="14" textLength="38.609">Vitest</text></g><!--entity TESTS--><g class="entity" data-qualified-name="TESTS" id="ent0003" data-source-line="77"><rect x="13.5" y="211" width="135.37" height="52.977" fill="#F1F1F1" style="stroke:#181818;stroke-width:0.5;" rx="2.5" ry="2.5"/><text x="23.5" y="234.535" fill="#000" font-size="14" textLength="115.37">Web Crypto tests</text><text x="23.5" y="251.023" fill="#000" font-size="14" textLength="89.503">crypto.test.ts</text></g><!--entity HELPER--><g class="entity" data-qualified-name="HELPER" id="ent0004" data-source-line="78"><rect x="291.5" y="319" width="211.317" height="52.977" fill="#F1F1F1" style="stroke:#181818;stroke-width:0.5;" rx="2.5" ry="2.5"/><text x="301.5" y="342.535" fill="#000" font-size="14" textLength="191.317">Web Crypto product module</text><text x="301.5" y="359.023" fill="#000" font-size="14" textLength="181.795">crypto.ts::computeNullifier</text></g><!--entity WEBCRYPTO--><g class="entity" data-qualified-name="WEBCRYPTO" id="ent0005" data-source-line="79"><rect x="292.5" y="427" width="208.973" height="52.977" fill="#F1F1F1" style="stroke:#181818;stroke-width:0.5;" rx="2.5" ry="2.5"/><text x="302.5" y="450.535" fill="#000" font-size="14" textLength="104.255">Web Crypto API</text><text x="302.5" y="467.023" fill="#000" font-size="14" textLength="188.973">TextEncoder / subtle.digest</text></g><!--entity HEX--><g class="entity" data-qualified-name="HEX" id="ent0006" data-source-line="80"><rect x="312.5" y="535" width="168.948" height="52.977" fill="#F1F1F1" style="stroke:#181818;stroke-width:0.5;" rx="2.5" ry="2.5"/><text x="322.5" y="558.535" fill="#000" font-size="14" textLength="73.979">Hex helper</text><text x="322.5" y="575.023" fill="#000" font-size="14" textLength="148.948">crypto.ts::bytesToHex</text></g><!--entity PROD--><g class="entity" data-qualified-name="PROD" id="ent0007" data-source-line="81"><rect x="273.5" y="211" width="247.11" height="52.977" fill="#F1F1F1" style="stroke:#181818;stroke-width:0.5;" rx="2.5" ry="2.5"/><text x="283.5" y="234.535" fill="#000" font-size="14" textLength="121.399">Production callers</text><text x="283.5" y="251.023" fill="#000" font-size="14" textLength="227.11">vote / relevance / SSO / compass</text></g><!--entity KAT--><g class="entity" data-qualified-name="KAT" id="ent0008" data-source-line="82"><rect x="539" y="211" width="194.385" height="52.977" fill="#F1F1F1" style="stroke:#181818;stroke-width:0.5;" rx="2.5" ry="2.5"/><text x="549" y="234.535" fill="#000" font-size="14" textLength="174.385">Queued EKA-22 Web KAT</text><text x="549" y="251.023" fill="#000" font-size="14" textLength="170.762">PR 397 crypto-kat.test.ts</text></g><g class="link" data-entity-1="ent0001" data-entity-2="ent0002" id="lnk9" data-link-type="dependency"><polygon points="81,119.839,85,110.839,81,114.839,77,110.839,81,119.839" fill="#181818" style="stroke:#181818;stroke-width:1;stroke-linejoin:miter;stroke-miterlimit:10;"/><path d="M81,65.117 C81,82.382 81,99.686 81,114.839" style="stroke:#181818;stroke-width:1;" fill="none"/><text x="83" y="97.568" fill="#000" font-size="13" textLength="81.586">N1 vitest run</text></g><g class="link" data-entity-1="ent0002" data-entity-2="ent0003" id="lnk10" data-link-type="dependency"><polygon points="81,210.783,85,201.783,81,205.783,77,201.783,81,210.783" fill="#181818" style="stroke:#181818;stroke-width:1;stroke-linejoin:miter;stroke-miterlimit:10;"/><path d="M81,156.431 C81,171.549 81,188.635 81,205.783" style="stroke:#181818;stroke-width:1;" fill="none"/><text x="83" y="188.568" fill="#000" font-size="13" textLength="109.11">N1 discover suite</text></g><g class="link" data-entity-1="ent0003" data-entity-2="ent0004" id="lnk11" data-link-type="dependency"><polygon points="291.378,340.786,282.653,336.217,286.388,340.466,282.14,344.201,291.378,340.786" fill="#181818" style="stroke:#181818;stroke-width:1;stroke-linejoin:miter;stroke-miterlimit:10;"/><path d="M82.494,264.213 C84.627,277.118 89.426,291.901 100,301 C128.293,325.346 212.929,335.745 286.388,340.466" style="stroke:#181818;stroke-width:1;" fill="none"/><text x="102" y="296.568" fill="#000" font-size="13" textLength="289.669">N2 named import / N3 synthetic phone + salt</text></g><g class="link" data-entity-1="ent0004" data-entity-2="ent0005" id="lnk12" data-link-type="dependency"><polygon points="397,426.709,401,417.709,397,421.709,393,417.709,397,426.709" fill="#181818" style="stroke:#181818;stroke-width:1;stroke-linejoin:miter;stroke-miterlimit:10;"/><path d="M397,372.16 C397,388.703 397,405.14 397,421.709" style="stroke:#181818;stroke-width:1;" fill="none"/><text x="399" y="404.568" fill="#000" font-size="13" textLength="154.185">N4 SHA-256(phone:salt)</text></g><g class="link" data-entity-1="ent0005" data-entity-2="ent0006" id="lnk13" data-link-type="dependency"><polygon points="397,534.709,401,525.709,397,529.709,393,525.709,397,534.709" fill="#181818" style="stroke:#181818;stroke-width:1;stroke-linejoin:miter;stroke-miterlimit:10;"/><path d="M397,480.16 C397,496.703 397,513.14 397,529.709" style="stroke:#181818;stroke-width:1;" fill="none"/><text x="399" y="512.568" fill="#000" font-size="13" textLength="98.535">N5 digest bytes</text></g><g class="link" data-entity-1="ent0007" data-entity-2="ent0004" id="lnk14" data-link-type="association"><path d="M397,264.16 C397,280.703 397,302.14 397,318.709" style="stroke:#181818;stroke-width:1;stroke-dasharray:7,7;" fill="none"/><text x="399" y="296.568" fill="#000" font-size="13" textLength="105.295">no import or call</text></g><g class="link" data-entity-1="ent0008" data-entity-2="ent0004" id="lnk15" data-link-type="dependency"><polygon points="466.437,318.94,476.275,319.391,471.094,317.121,473.365,311.94,466.437,318.94" fill="#181818" style="stroke:#181818;stroke-width:1;stroke-linejoin:miter;stroke-miterlimit:10;"/><path d="M587.133,264.062 C563.99,275.825 535.821,289.655 510,301 C496.047,307.13 485.591,311.458 471.094,317.121" style="stroke:#181818;stroke-width:1;stroke-dasharray:7,7;" fill="none"/><text x="551" y="296.568" fill="#000" font-size="13" textLength="177.607">queued Q1 test-only import</text></g><?plantuml-src TLFBRjim4BppAxQvj4LW5N6I5jMXWEiAS93MLYmXIG5VQ6fZgwP8bQISwDQFw1VsIx8K5JyAv2A9sfdXx2pvfZPyLN6GlDMD0rkXuugpjv1SZmR32n2wghL2vQ0e-Shm2lxz-GlS6FreGIlPmeCsuDO8kaQ51JYq3fpX0fdTbAhcdhDJoLmh4GmAscKbaUtbJ-vm6SZqh-AgM11NRFWAerzMgpZsjHFW5l8aoyS_lXroRyjTzVRAr_yN7fksThhJjmibkbNaLv6pEz7i5LPjTD481nMz9ExfDeuzeN4uRQGi7qeqdTOa-PucyrV4HkdLGkNuv18bT846Fe1jbavYL9IhboRkag_Z-SyqdnsAJF09rYXhD4SMbYtraMkgzflV7vBIuBtK2WIN4WsrlzKEQLk34hTS2V-TPJDwUXwt8P1qFZkA-AR1XiRR7OiX-8QkH_b2fNCu__m9Wf_1XhkZL0d2M3yl60o-zDE16APdiEs61gPHhF_j4TqW0g0ehT1RYiWs16MXuZ4XO0yQWk8LsIh9ft7KmlGSRAleFBfIGBqcyt0Abal7UfBdx-Br4XUGJQYdou_lEdZimU_P7X8slFVGImWpWYvpvYE2ADhRKVh52Dq97pUZ00XnuFXtYF7ch3kBW-u61Sup?></g></svg>